<?xml version="1.0" encoding="UTF-8"?>
<svg enable-background="new 0 0 300 200" version="1.1" viewBox="0 0 300 200" xml:space="preserve" xmlns="http://www.w3.org/2000/svg">
<style type="text/css">
	.st0{fill:none;}
	.st1{fill:#1E1E1C;}
	.st2{font-family:'Roboto-Regular';}
	.st3{font-size:12.3558px;}
	.st4{fill:none;stroke:#1D1E1C;stroke-width:0.2174;stroke-miterlimit:10;stroke-dasharray:0.5988,0.5988;}
	.st5{fill:#EF781F;}
	.st6{font-size:14.0032px;}
	.st7{fill:none;stroke:#1D1E1C;stroke-width:0.2174;stroke-miterlimit:10;}
	.st8{fill:#777776;}
	.st9{font-size:12px;}
	.st10{font-size:14px;}
	.st11{fill:#C9C9C8;}
</style>
		<rect class="st0" x="2" y="124.57" width="21.21" height="12.612"/>
		<text transform="translate(4.1094 135.14)"><tspan class="st1 st2 st3" x="0" y="0">c</tspan><tspan class="st1 st2 st3" x="6.1616" y="0">m </tspan></text>
		<line class="st4" x1="28.64" x2="300" y1="82.816" y2="82.816"/>
	<line class="st4" x1="28.64" x2="300" y1="52.236" y2="52.236"/>
	<rect class="st0" x="174.07" y="69.517" width="66.246" height="13.18"/>
	<text class="st5 st2 st6" transform="translate(187.79 80.019)">33 cm</text>
	<line class="st7" x1="28.64" x2="300" y1="113.4" y2="113.4"/>
	<path class="st8" d="m259.56 106.51c-2.1275 1.2795-4.9454 1.3851-6.7209 2.9831-0.9197 0.9745-0.7352 4.9668-2.4666 3.7941-1.0803-2.1928 0.4957-4.8984 1.1529-7.1406 2.4882-1.8081 3.0551-4.5372 3.1169-7.4351 0.1057-1.2111 1.5222-2.4229 0.3507-3.5262-1.5055-1.9498-3.6155-3.5381-4.3208-6.0356-1.6429-3.9164 2.0402-9.8945 6.2329-6.7825 0.5725 0.4391 0.8072 1.9738-0.2614 1.722-7.5686-1.9711-1.8015 8.7527 1.9774 9.7837 7.2665-0.4041 14.287 1.0578 21.522 1.9563 1.9788 0.1067 4.2023-0.249 5.8518-1.3391 0.5271-0.5321 1.4394-0.7817 1.2373 0.3255 1.0849-0.3399-0.0782 0.9334 0.7359 1.2512 1.503 1.0993 3.2618 4.4034 0.8341 5.3614-8.0701-0.1546-8.4011 4.6713-2.9985 9.4422 2.2308 0.7038 0.3788 1.9296-1.0769 1.5009-1.8582-0.7753-7.2876-7.4691-9.0462-5.5628-0.8268 1.1125-1.6132 3.952-0.652 4.969 2.2977 0.9783 0.4213 1.9843-1.1772 1.6119-2.8835-1.5385-0.3506-8.6014-4.5767-7.621-1.3809-0.6433-2.6629 0.606-4.0965 0.3586-0.9204 0.7739-1.6282 2.4553-1.9402 3.6732 0.2555 0.8165 1.1692 1.8333 1.9839 2.0475 0.6008-0.1596 1.4104 0.2606 1.344 0.907-3.283 2.4625-7.5461-2.8554-7.0064-6.2447z"/>
			<rect class="st0" x="253.5" y="126.85" width="34.542" height="14.5"/>
		<text transform="matrix(.9694 0 0 1 258.87 137.11)"><tspan class="st1 st2 st9" x="0" y="0">Gat</tspan><tspan class="st1 st2 st9" x="17.7011" y="0">o</tspan></text>
		<path class="st5" d="m184.71 97.381c7.1439-2.4763 8.9632-0.2442 7.9844 6.8951 0.1658 2.2265-1.6419 5.3207 0.5823 6.8652 2.3025 2.0241 5.3638 3.3908 8.1998 1.6076 0.6558-0.583-0.2881-0.9081-0.7155-1.1607-0.9696-0.6506-1.3183-1.399-0.9518-2.5366 1.0754-4.2746 5.6121-6.3136 9.6417-5.1642 2.5343 1.4224-1.678 6.3159 1.2044 7.7615 0.9314 0.5978 6.9983 3.6015 5.1523 0.3194-1.5924-1.9452 1.1671-4.0093 2.0607-5.6766 2.558-1.2385 2.6564 9.7844 13.343 7.3579 1.4156-0.2403 0.6221-1.8566-0.3836-2.0104-2.608-0.8076-4.4456-2.164-5.6086-4.6905-1.3544-3.8447 7.4147-3.7988 9.3734-2.3227 0.9374 0.5904 1.8195 0.4592 2.9661-0.5309 1.1919-0.7262-0.4748-2.5905 0.1892-3.782 1.0579-2.4166-1.5785-4.1812-1.9139-6.2769 0.3148-1.6896-1.112-1.6135-2.4063-1.349-3.6924-1.2063-7.6208-0.472-11.278-1.7018-5.359-2.4059-11.006-4.2664-16.857-4.8686-13.227-0.7985-34.75 2.1954-37.291 18.162 1.4258 5.9733 7.3321-1.3977 9.957-2.8187 2.1498-1.3772 4.3899-3.1903 6.7515-4.0796z"/>
	<rect class="st0" x="167.49" y="125" width="79.396" height="16.198"/>
	<text class="st5 st2 st10" transform="matrix(1.0081 0 0 1 173.32 136.98)">Panda rojo</text>
	<path class="st11" d="m50.258 111.7c0.4345-10.86 4.5604-30.587 8.0214-40.98 20.697-19 38.846-19.711 65.202-19.091 6.5497-4.7173 12.776 0.8708 19.307 1.9828 3.9693-1.9149 7.6334 3.78 9.968-0.8783 4.5574-2.9166 2.1127 4.2762 4.0103 5.6758 3.9292 1.0179 6.1889 5.9961 7.197 9.511 0.6112 1.8519 7.1829 4.5568 5.5043 7.0277-3.6554 8.3771-13.672 9.4376-21.627 8.058-5.8967-10.232-10.174 16.111-8.2812 17.356 10.945 1.9557 12.633 12.078 0.2243 13.23-9.6997 3.8193-25.679-10.498-32.61-15.506-1.9227-1.4079 1.147-8.3245-3.2541-6.6898-8.1626 4.6636-13.141 6.6286-7.9393 16.786 0.5418 2.745 15.762 0.6662 8.8426 5.4116-0.482-0.3657-22.812 0.723-22.294-0.6869-2.4454-2.2221-10.33-18.489-14.923-13.582-1.1354 2.5344-4.4486 9.0788-0.1468 10.308 5.9611 6.3037-16.294 4.6832-17.202 2.0657z"/>
			<rect class="st0" x="60.75" y="125.85" width="80.208" height="14.5"/>
		<text transform="matrix(1.0151 0 0 1 72.599 136.11)"><tspan class="st1 st2 st9" x="0" y="0">Os</tspan><tspan class="st1 st2 st9" x="13.8521" y="0">o </tspan><tspan class="st1 st2 st9" x="23.6667" y="0">panda</tspan><tspan class="st1 st2 st9" x="49.1446" y="0"></tspan></text>
				<text class="st1 st2 st3" transform="translate(13.662 117.25)">0 </text>
				<text transform="translate(7.3457 86.594)"><tspan class="st1 st2 st3" x="0" y="0">4</tspan><tspan class="st1 st2 st3" x="6.6323" y="0">0 </tspan></text>
				<text transform="translate(7.3457 55.932)"><tspan class="st1 st2 st3" x="0" y="0">8</tspan><tspan class="st1 st2 st3" x="6.6323" y="0">0 </tspan></text>
	</svg>
