<?xml version="1.0" encoding="utf-8"?>
<!-- Generator: Adobe Illustrator 24.1.2, SVG Export Plug-In . SVG Version: 6.00 Build 0)  -->
<svg version="1.1" id="Capa_1" xmlns="http://www.w3.org/2000/svg" xmlns:xlink="http://www.w3.org/1999/xlink" x="0px" y="0px"
	 viewBox="0 0 66.2 100" style="enable-background:new 0 0 66.2 100;" xml:space="preserve">
<style type="text/css">
	.st0{fill-rule:evenodd;clip-rule:evenodd;fill:#EF781F;}
	.st1{fill-rule:evenodd;clip-rule:evenodd;fill:#D8D8D8;}
	.st2{fill:#FFFFFF;}
	.st3{fill:none;}
	.st4{fill:#1D1D1B;}
	.st5{font-family:'Roboto-Regular';}
	.st6{font-size:8px;}
	.st7{fill:#1E1E1C;}
	.st8{font-size:7.9996px;}
</style>
<path class="st0" d="M31.9,55.5l0.9-26.4c14.6,0.5,25.9,12.7,25.4,27.3S45.6,82.4,31,81.8S5.1,69.1,5.6,54.6
	c0.5-13,9.8-23.4,22.7-25.2L31.9,55.5L31.9,55.5z"/>
<path class="st1" d="M31.9,55.5l-3.7-26.1c1.5-0.2,3.1-0.3,4.6-0.2L31.9,55.5L31.9,55.5z"/>
<circle class="st2" cx="32" cy="55.8" r="16.8"/>
<rect x="24.2" y="15.9" class="st3" width="15.7" height="6"/>
<text transform="matrix(1 0 0 1 26.5169 25.0673)" class="st4 st5 st6">2%</text>
<rect x="16.9" y="48.2" transform="matrix(0.9999 -1.010148e-02 1.010148e-02 0.9999 -0.5711 0.3261)" class="st3" width="30.2" height="17"/>
<text transform="matrix(0.9999 -1.010148e-02 1.010148e-02 0.9999 26.2724 52.6298)" class="st7 st5 st8">98%</text>
<text transform="matrix(0.9999 -1.010148e-02 1.010148e-02 0.9999 20.1622 59.5226)" class="st7 st5 st8">Bambú</text>
<path class="st4" d="M31.9,55.5"/>
</svg>
