<?xml version="1.0" encoding="utf-8"?>
<!-- Generator: Adobe Illustrator 24.1.2, SVG Export Plug-In . SVG Version: 6.00 Build 0)  -->
<svg version="1.1" xmlns="http://www.w3.org/2000/svg" xmlns:xlink="http://www.w3.org/1999/xlink" x="0px" y="0px"
	 viewBox="0 0 1366 410" style="enable-background:new 0 0 1366 410;" xml:space="preserve">
<style type="text/css">
	.st0{fill:#FEF6F0;}
	.st1{fill:#FAD2B4;}
	.st2{clip-path:url(#SVGID_2_);}
	.st3{fill:none;}
	.st4{fill:#FAD2B4;stroke:#FFFFFF;stroke-width:1.9043;stroke-miterlimit:19.0425;}
	.st5{fill:#FFFFFF;stroke:#FAD2B4;stroke-width:0.5;stroke-miterlimit:10;}
	.st6{fill:#F18B3F;}
	.st7{fill:none;stroke:#1D1D1B;stroke-miterlimit:10;}
	.st8{fill:#1D1D1B;}
	.st9{display:none;}
	.st10{display:inline;enable-background:new    ;}
	.st11{enable-background:new    ;}
	.st12{display:inline;}
	.st13{font-family:'Roboto-Regular';}
	.st14{font-size:15px;}
	.st15{font-size:27px;}
	.st16{font-size:20px;}
	.st17{font-size:25px;}
</style>
<g id="fondo_1_">
	<rect id="fondo" x="2" class="st0" width="1366" height="410"/>
</g>
<g id="relleno">
	<path class="st1" d="M182.6,234.3C122.4,229.1,62.2,223.8,2,218.6V0c81.1-0.1,162.1-0.2,243.2-0.3
		C224.3,77.9,203.4,156.1,182.6,234.3z"/>
</g>
<g id="mapa">
	<g id="mapa_1_">
		<g>
			<defs>
				<rect id="SVGID_1_" x="2" width="1366" height="410"/>
			</defs>
			<clipPath id="SVGID_2_">
				<use xlink:href="#SVGID_1_"  style="overflow:visible;"/>
			</clipPath>
			<g class="st2">
				<rect x="564.4" y="293.9" class="st3" width="194.9" height="50.5"/>
				<g>
					<g>
						<desc>JavaScript chart by amCharts 3.21.15</desc>
						<desc>
							This map was created using Pixel Map Generator by amCharts and is licensed under the Creative Commons Attribution 4.0 International License. You may use this map the way you see fit as long as proper attribution to the name of amCharts is given in the form of link to http://pixelmap.amcharts.com/ To view a copy of this license, visit http://creativecommons.org/licenses/by/4.0/ If you would like to use this map without any attribution, you can acquire a commercial license for the JavaScript Maps - a tool that was used to produce this map. To do so, visit amCharts Online Store: http://www.amcharts.com/online-store/
							</desc>
						<g>
							<g transform="translate(0.0095398552110737,69.75632244470415) scale(1)">
								<g transform="translate(0,0) scale(1.9042518004181241)">
									<path class="st4" d="M385.9,97.4l-0.2,8.4l-4.1-1.8l0.8,9.4l-3.4-6.1l-0.7-5.9l-2.3-5.6l-4.9-6.8l-10.8-0.5l1.1,4.8
										l-3.7,6.5l-5-2.3l-1.7,2.1l-3.3-1.3l-4.5-1.1l-1.8-9.6l-4.1-8.8l2-7l-7.2-3.1l2.6-4.2l7.3-4.4l-8.5-6.2l4.1-7.9l9.3,5
										l5.6,0.6l1,8.1l11.1,1.6l10.9-0.2l6.8,2L377,73l-5.3,0.7l-3.6,6.7l6.4,6l1.9-7.5l3.3,0L385.9,97.4z"/>
									<path class="st4" d="M374.5,30.5l4.8,3.7l-0.8,7.2l-9.6,0.3l-9.9-0.8l-7.4,1.8l-10.7-4.4l-0.2-2.4l7.7-8.7l6.3-3l8.4,2.7
										l6.2,0.3L374.5,30.5z"/>
									<path class="st4" d="M797-226.8l20.4,3.7l13.9,8.3l4.7,11h17.8l10.2-4.6l19.4-3.5l-6.2,10.6l-4.6,4.3l-4,12.8l-7.9,11.4
										l-14.3-2.1l-10.1,4.1l3.1,10l-1.7,13.8l-6,0.3l0.1,5.9l-7.6-6.9l-4.7,6.5l-18.1,5.1l1.8,6.2l-10.1-0.4l-5.6-3.7l-8.1,8.3
										l-13,6.3l-9.5,7.5l-16.4,3.4l-8.7,5.5l-12.7,3.2l6.2-5.4l-2.4-4.5l9.3-7.9l-6.2-6.2l-10.3,4.2l-13.2,8.1l-7.3,7.6
										l-11.5,0.5l-6,5.4l6.2,7.9l9.6,1.9l0.4,5.2l9.3,3.4l13.2-8.3l10.4,4.5l7.6,0.3l1.9,6.1l-16.6,3.3l-5.5,6.3l-11.4,5.9
										l-6,8.2l12.7,6.5l4.6,11.5l7.1,10.7l8,9l-0.2,8.7l-7.4,3.2l2.8,6.2l6.9,3.6l-1.8,9.5l-3,9.3l-6.6,1l-8.5,12.6l-9.5,15.3
										l-10.9,13.9l-16.1,10.8l-16.3,9.8l-13.2,1.3l-7.2,5.2l-4.1-3.8l-6.6,5.8l-16.4,5.9l-12.4,1.8l-4,12.3l-6.5,0.7l-3.1-8.5
										l2.8-4.5l-15.8-3.7l-5.6,1.9l-11.8-3l-5.6-4.7l1.9-6.8l-10.8-2.1l-5.7-4.4l-10,6.2l-11.4,1.3l-9.4,0l-6.3,2.8l-6.1,1.7
										l1.8,13.4l-6.3-0.3l-1-2.7l-0.4-4.9l-8.6,3.4l-5.1-2.2l-8.7-4.4l3.4-9.7l-7.5-2.3l-2.8-10.8l-12.4,2l1.4-13.9l11.1-9.8
										l0.5-9.6l-0.4-9l-5.1-2.8l-3.9-6.9l-6.9,0.9L427.9,23l4-4.9l-5.5-7.3l-8.4,4.9l-9.9-2.9l-13.5,7.5L383.9,29l-9.5,1.5
										l-5.1-3.1l-6.2-0.3l-8.4-2.7l-6.3,3l-7.8,8.7l-1-9.2l-7.2,2.5l-13.7-1.1l-13.3-2.7l-9.5-5.1l-9.1-2.3l-3.9-5.6l-6.6-1.7
										l-11.9-7.6L255-0.5l-4.9,2.8l-16.4-8.2l-11.5-7.4l-3.3-12.9l8.4,1.6l0.4-6l-4.6-6l1.2-9.5l-12.6-13.7l-19.3-4.7l-3.5-9
										l-8.7-5.4l-2.1-3.4l-1.8-6.7l0.4-4.5l-7.2-2.7l-3.9,1.2l-3-10.8l3.4-2.7l-1.6-2.8l11.2-5.5l8.1-2.3l12.4,1.5l4.4-7.5
										l15.1-1.4l4.2-4.6l18.5-6.4l1.6-2.6l-0.9-6.7l8-3.1l-10.6-20.3l23.3-4.7l6-2.6l8.5-21l23.3,3.9l6.5-5.3l0.5-11.8l9.8-1.1
										l8.9-7.8l4.6-1l3.1,8.2l9.9,6.2l16.8,4.4l8.1,9.5l-4.5,13.7l4.2,5.1l14,2l15.8,1.6l14.2,7.3l7.3,1.3l5.4,10.8l6.9,7l13-0.3
										l24.3,2.6l15.6-1.6l11.6,1.7l17.4,7.1h14.2l5.2,3.6l13.7-6.3l19-4.1l17.6-0.4l13.7-4.1l8.4-6.2l8.2-3.9l-1.9-3.9l-3.8-4.5
										l6.2-7.5l6.6,1.1l12.1,2.4l11.7-6.2l17.9-4.6l8.6-7.8l8.3-3.3l17-1.6l9.3,1.3l1.3-4.1l-10.6-8.2l-9.4-3.7l-9,4.3l-11.6-1.8
										L657-203l-3.1-4.8l8.3-11.7l5.7-8.8l14.1,4.4l16.6-7.4l-0.1-5.1l10.6-12.4l6.5-3.8l-0.1-6.5l-6.5-2.8l9.7-5.8l14.6-2.1
										l15.5-0.3l17.6,3.5l10.3,4.3l7.3,11.8l4.4,5.1l4.1,7.2L797-226.8z"/>
									<path class="st4" d="M211.6-59.8l12.6,13.7l-1.2,9.5l4.6,6l-0.4,5.9l-8.4-1.5l3.3,12.9l11.5,7.4l16.3,8.2l-7.5,5.3
										l-4.6,10.9l11.4,4.4l11.1,5.7l15.3,6.6l16.1,1.5l6.8,6l9,1.1l14.2,2.7l9.8-0.2l1.3-4.7l-1.5-7.4l0.9-5l7.2-2.5l1,9.2
										l0.2,2.3l10.7,4.4l7.4-1.8l9.9,0.8l9.6-0.3l0.8-7.2l-4.8-3.7l9.5-1.5l10.7-8.7l13.5-7.5l9.9,2.9l8.4-4.9l5.5,7.3l-4,4.9
										l12.6,1.8l0.9,4.4l-4.1,2.1l1,7.2l-8.4-2.1l-15.2,8l0.3,6.7l-6.5,9.8l-0.6,5.7l-5.2,9.6l-9.2-2.7l-0.5,12.1l-2.6,4l1.3,4.9
										l-5.8,2.8l-6.1-18.5l-3.3,0l-1.9,7.5l-6.4-6l3.6-6.7L377,73l5.4-9.9l-6.8-2l-10.9,0.2l-11.1-1.6l-1-8.1l-5.6-0.6l-9.3-5
										l-4.1,7.9l8.5,6.2l-7.3,4.4l-2.6,4.2l7.2,3.1l-2,7l4.1,8.8l1.8,9.6l-1.7,4.3l-8-0.1l-14.5,2.4l0.7,8.8l-6.3,6.9l-16.9,7.9
										l-13.2,13.7l-8.8,7.4l-11.7,7.7v5.4l-5.9,2.9l-10.6,4.2l-5.5,0.6l-3.5,8.9l2.5,15.2l0.6,9.7l-4.9,11.1l-0.1,19.8l-6.1,0.5
										l-5.3,8.9l3.6,3.9l-10.7,3.3l-3.9,7.9l-4.7,3.4L197,250.8l-5.4-16.3l-4.5-11.8l-4.1-5.5l-6.2-11.2l-2.9-14.6l-2.1-7.3
										l-10.7-16l-4.9-22.6l-3.5-15l0-14.2l-2.3-10.9l-17.1,7l-8.3-1.4l-15.3-14.2l5.7-4.2l-3.5-4.6l-13.8-9.9l7.8-7.8l25.8,0
										l-2.4-10.1l-6.6-5.9l-1.3-9l-7.7-5.2l12.9-12.2l13.7,0.9l12.3-12.3l7.4-11.9l11.4-11.7l-0.2-8.3l10-6.8l-9.5-5.8l-4.1-7.9
										l-4.1-10.2l5.7-5.1l17.8,2.8l13.1-1.7L211.6-59.8z"/>
									<path class="st4" d="M533.3,188.1l3.8-5.2l0.5-9.9l-9.5-10.2l-0.8-11.5l-8.9-9.5l-8.9-0.8l-2.4,4.1l-6.9,0.3l-3.5-2.1
										l-12.4,7l-0.3-10.4l2.9-12.3l-7.9-0.5l-0.7-7l-5.1-3.6l2.5-4.3l10-7.6l1,2.7l6.2,0.3l-1.8-13.4l6.1-1.7l6.9,9.2l5.3,10.6
										l14.5,0.1l4.6,10.2l-7.5,3.1l-3.4,4.2l14.1,7l9.8,13.8L549,161l8.9,8.1l3,8.3l-2.1,11.7l-10.4-4.3l-5.3,8L533.3,188.1z"/>
									<path class="st4" d="M466.7,119.1l-6.9,5.1l-8.3,0.5l-5.4,12.6l-4.9,2.1l5.7,10.3l7.4,8.6l4.8,7.7l-4.3,10.2l-4.1,2.1
										l2.8,5.9l7.8,9.3l1.3,6.5l-0.2,5.4l4.6,10.6l-6.5,10.9l-5.7,12l-1.1-8.7l3.6-8.9l-3.9-6.9l1-12.7l-4.8-6.1l-3.8-13.9
										l-2.1-14.8l-5.1-9.7L431,163l-13.4,8.3l-6.6-1.1l-7.3-2.8l4-14.5l-2.4-10.9l-9.2-13.4l1.4-4.2l-6.9-1.5l-8.3-9.5l-0.8-9.4
										l4.1,1.8l0.2-8.4l5.8-2.8l-1.3-4.9l2.6-4l0.5-12.1l9.2,2.7l5.2-9.6l0.6-5.7l6.5-9.8l-0.3-6.7l15.2-8l8.4,2.1l-1-7.2
										l4.1-2.1l-0.9-4.4l6.9-0.9l3.9,6.9l5.1,2.8l0.4,8.9l-0.5,9.6l-11.1,9.8l-1.4,13.9l12.4-2l2.8,10.8l7.5,2.3l-3.4,9.7
										l8.7,4.4l5.1,2.2l8.6-3.4l0.4,4.8l-10,7.6l-2.5,4.3L466.7,119.1z"/>
									<path class="st4" d="M332.4,29.2l-0.9,5l1.5,7.4l-1.3,4.7l-9.8,0.2l-14.2-2.7l-9-1.1l-6.8-6l-16.1-1.5l-15.3-6.6l-11.1-5.7
										l-11.4-4.4l4.6-10.9l7.5-5.3l4.9-2.8l9.4,3.6l11.9,7.6l6.6,1.7l3.9,5.6l9.1,2.3l9.5,5.1l13.3,2.7L332.4,29.2z"/>
									<path class="st4" d="M180.1-79l8.7,5.4l3.5,9l19.3,4.7L200.3-50l-13.1,1.7l-17.8-2.8l-5.7,5.1l4.1,10.2l4.1,7.9l9.5,5.8
										l-10,6.7l0.2,8.3L160.1,4.7l-7.4,11.9l-12.3,12.3l-13.7-0.9l-12.9,12.2l7.7,5.2l1.3,9l6.6,5.9l2.4,10.1l-25.8,0l-7.8,7.8
										l-8.6-2.9L86,66.8l-9.1-8.9l-21.6,2.2l-19.1,0.2L19.7,62l4.4-13.6l16.9-6l-1-5.4l-5.6-1.9l-0.3-10.3l-11.2-5.1l-4.7-7
										l-5.8-6.2l19.6,6l11.8-1.8l7,1.5l2.4-2.6l8.2,1.1l15.3-4.9l0.4-10l6.5-6.6h8.8l1.3-3.3l9-1.6l4.3,1.1l4.6-3.3l-0.6-7l5-7
										l7.5-3l-4.6-7.7l11.2,0.3l3.2-4.2l-0.5-4.5l5.9-4.9l-1.4-5.8l-2.8-4.9l6.9-5.1l12.6-2.5l13.5-1.4l5.9-2.1L180.1-79z"/>
									<path class="st4" d="M502.4,212.5l-10.6-5.3l-10.1,0.2l1.7-9.2l-10.4,0l-0.9,12.9l-6.3,17.1l-3.8,10.3l0.8,8.4l7.6,0.4
										l4.8,10.6l2.1,10.1l6.5,6.7l7.1,1.3l6.1,6.1l-3.8,4.8l-7.8,1.4l-0.9-6l-9.5-5.1l-2,2l-4.6-4.5l-2-5.8l-6.2-6.6l-5.7-5.5
										l-1.9,6.9l-2.2-6.5l1.3-7.3l3.4-11.2l5.7-12l6.5-10.9l-4.6-10.6l0.2-5.4l-1.3-6.5l-7.8-9.3l-2.8-5.9l4.1-2.1l4.3-10.2
										l-4.8-7.7l-7.4-8.6l-5.7-10.3l4.9-2.1l5.4-12.6l8.3-0.5l6.9-5.1l6.7-2.7l5.1,3.6l0.7,7l7.9,0.5l-2.9,12.3l0.3,10.4l12.4-7
										l3.5,2.1l6.9-0.3l2.4-4.1l8.9,0.8l8.9,9.5l0.8,11.5l9.5,10.2l-0.5,9.9l-3.8,5.2l-11-1.7l-15.2,2.2l-7.5,9.7L502.4,212.5z"
										/>
									<path class="st4" d="M566.6,103.2l-15.7,10l-9.8,11l-2.6,8.1l9,12.3l11,15.3l10.6,7.2l7.2,9.3l5.4,21.6l-1.6,20.5l-9.8,7.7
										l-13.5,7.5l-9.6,9.7l-14.7,10.9l-4.3-7.5l3.3-7.9l-8.7-6.6l10.2-4.7l12.3-0.8l-5.2-7.1l19.7-9l1.5-13.9l-2.7-7.8l2.1-11.7
										l-3-8.3l-8.9-8.1l-7.4-10.3l-9.8-13.8l-14.1-7l3.4-4.2l7.5-3.1l-4.6-10.2l-14.5-0.1l-5.3-10.6l-6.9-9.2l6.3-2.8l9.4,0.1
										l11.4-1.4l10-6.2l5.7,4.4l10.8,2.1l-1.9,6.8l5.6,4.7L566.6,103.2z"/>
								</g>
							</g>
						</g>
					</g>
				</g>
				<rect x="627.7" y="120.1" class="st3" width="119.8" height="21.3"/>
				<rect x="619.4" y="201.6" class="st3" width="116.2" height="16.8"/>
				<rect x="734.5" y="236.8" class="st3" width="173.7" height="42.8"/>
			</g>
		</g>
	</g>
</g>
<g id="Asia">
	<g id="asia_2_">
		<rect x="2" y="221.5" class="st5" width="302.9" height="188.5"/>
		<g>
			<polygon class="st6" points="263.1,368.7 262.5,368.9 262.1,369 261.3,368.7 260.8,368.6 260.8,369 261.2,369.8 261.3,370.3 
				261.8,371 262.3,371 262.5,371.1 263,370.5 263.3,370.7 263.4,370.1 263.7,369.8 263.6,368.8 			"/>
			<polygon class="st6" points="267.5,356.8 267.5,356.3 267.3,355.7 266.7,355 266.3,354.7 265.7,354.1 265.6,353.3 265.4,353.4 
				265.1,353 264.7,353.2 264.4,352.3 264,351.8 264.1,351.6 263.5,351.2 263,350.8 262.1,350.4 261.8,349.8 261.9,349.4 
				261.7,348.6 261.5,348.5 261.4,348.1 261.2,347.4 261.3,347 260.9,346.7 260.6,346.4 260.1,346.7 259.8,346 259.9,345.7 
				259.8,345.2 259.5,344.8 259.5,344.5 259.3,344.4 259.2,343.8 259,343.4 258.7,343.7 258.7,344 258.5,344.4 258.3,344.9 
				258.5,345.2 258.3,345.3 258.2,346 258.3,346.4 258.2,346.7 258.3,347.1 258.1,347.8 258,348.2 257.8,348.6 257.7,349 
				257.1,349.3 256.4,349 256.3,348.8 255.8,348.6 255.6,348.6 255,348.1 254.6,347.8 254,347.5 253.4,347 253.3,346.8 253.6,346.4 
				253.8,346 253.7,345.6 254,345.6 254.3,345.3 254.5,344.8 254.2,344.4 254,344.6 253.7,344.5 253.2,344.7 252.7,344.5 
				252.5,344.6 251.8,344.4 251.4,344 250.8,343.8 250.4,343.9 251,344.2 251,344.6 250.3,344.8 249.9,344.7 249.4,345 249.1,345.5 
				249.2,345.7 248.9,345.9 248.5,346.6 248.6,347 248.1,347 247.6,346.9 247.2,346.5 246.6,346.1 246.2,346.2 245.9,346.3 
				245.8,346.5 245.5,346.4 245.5,346.6 245.1,346.8 244.9,347.1 244.4,347.5 244.3,348.2 244,348 243.7,348.4 244,348.8 243.7,349 
				243.3,348.2 242.8,348.9 242.8,349.4 242.7,349.7 242.3,350.2 242.1,350.6 241.6,351 240.8,351.2 240.3,351.2 240.1,351.3 
				240,351.5 239.5,351.6 238.9,351.9 238.6,351.8 238.3,351.8 237.7,352.1 237.3,352.5 236.6,352.8 236.3,353.4 236.2,352.7 
				235.9,353.3 236,353.8 235.9,354.2 235.7,354.4 235.6,354.9 235.8,355.2 235.9,355.4 236.3,356.1 236.3,356.5 236.1,356.2 
				235.7,356 235.9,356.7 235.6,356.4 235.7,356.7 236.1,357.4 236.3,358 236.6,358.4 236.6,358.6 236.9,359.2 236.9,359.7 
				237,360.1 237.5,361 237.6,361.5 237.5,362.1 237.5,362.4 237.4,362.6 236.9,362.7 236.9,363.2 237.4,363.3 238.2,363.9 
				238.8,363.9 239.3,363.9 239.7,363.6 240.1,363.4 240.4,363.4 240.8,363 241.4,362.9 242,362.9 242.7,363 243.2,362.9 
				243.9,362.9 244.2,362.6 244.3,362.1 245,361.9 245.9,361.5 246.6,361.5 247.5,361.3 248.6,361 250,360.9 250.8,361.3 
				251.4,361.3 252.4,361.8 252.2,362 252.6,362.3 253.2,363 253.1,363.4 253.8,363.8 254.1,363.1 254.6,362.8 255.2,362.1 
				255.3,362.7 255,363.1 254.9,363.6 254.4,364 255.1,363.9 255.5,363.3 255.7,363.9 255.5,364.4 256.2,364.5 256.6,364.8 
				256.8,365.2 257,365.9 257.5,366.4 258.3,366.6 258.7,366.7 259.2,366.8 259.9,367 260.6,366.4 261,366.3 260.9,366.7 
				261.4,366.9 262,367.2 262.5,366.9 262.9,366.5 263.6,366.2 264.5,366.2 265,365.9 265,365.6 265.1,365 265.3,364.4 265.6,364 
				265.8,363.3 266.1,362.8 266.4,362.2 267,361.8 267.3,361 267.5,360.4 267.5,359.9 267.7,359.2 267.8,358.8 267.9,358 
				267.5,357.3 			"/>
			<polygon class="st6" points="116.4,339.1 116.1,338.8 115.4,338.8 114.8,338.5 113.8,337.6 112.6,336.9 111.4,336.9 109.8,336.5 
				108.9,336.7 109,336.3 108.6,335.8 107.3,335.3 106.3,335 105.7,335.5 105.6,334.7 104.2,334.5 104,334.3 104.6,333.6 104.6,333 
				104.1,332.9 103.7,331.4 103.5,331 103.2,331 103.1,330.7 102.2,330 101.6,329.8 101.3,329.7 100.5,329.4 99.8,329.5 99.8,329.6 
				98.8,329.5 98.5,329.2 98.1,328.8 97.7,328.8 97.7,328.3 97.2,327.8 96.7,327.5 96.4,327.3 96,327.3 95.8,326.6 95.2,326.2 
				94.6,326.1 94.3,325.8 95,325.5 94,325.5 93,325.6 93,325.8 92.6,326 92,325.9 91.5,325.6 90.7,325.6 89.9,325.6 89.9,325.4 
				89.4,324.9 88.8,324.9 88.5,324.3 88.3,324.6 88.4,325 87.4,325.3 87.4,325.9 87.7,326.2 87.5,326.8 87.1,326.9 86.8,326.2 
				87.2,325.7 87.2,325.3 86.9,324.9 87.4,324.8 87.4,324.6 87.6,324.3 87.4,324.1 87.1,324.1 86.7,324.5 86.4,324.6 85.7,325.1 
				85.1,325 85.1,325.2 84.6,325.2 84.1,325.6 83.9,326.3 83.9,326.6 83.6,326.7 83,327.2 82.6,327.2 82.3,327 82,326.7 81.7,326.6 
				81.2,326.6 81.2,326.5 80.8,326.4 80.5,326.7 80,326.9 79.7,327.1 79.3,327.1 79.1,326.9 79,327 78.7,326.9 78.7,326.8 
				78.4,326.5 78,326.1 77.7,325.8 77.5,325.3 77.4,325.2 77.4,325 77.5,324.7 77.5,324.5 77.6,324.2 77.7,324.1 77.7,323.7 
				77.6,323.5 77.6,323.1 77.7,322.8 77.9,322.5 77.8,322.2 77.9,322 77.9,321.9 77.7,321.7 77.4,321.6 77.2,321.4 77,321.2 
				76.8,321.2 76.5,321.1 76.3,321.1 76.1,321.2 75.9,321.1 75.6,321.1 75.6,321.2 75.3,321.3 74.9,321.3 74.6,321.2 74.4,321.2 
				74.3,321.2 74.1,321.2 73.9,321.3 73.9,321.3 73.6,321.2 73.6,321.3 73.3,321.2 73.4,320.9 73.6,320.9 73.8,320.6 73.8,320.2 
				73.8,320.1 73.9,319.8 73.8,319.7 73.9,319.3 73.9,319.1 73.8,319.1 73.8,319 74,319 74.2,319.2 74.4,318.5 74.5,318.2 74.3,318 
				74.5,317.5 75,317 75,316.6 74.8,316.4 74.3,316.5 73.6,316.5 72.8,316.7 72.2,316.9 72.1,317.1 72,317.8 71.8,318.3 71.3,318.7 
				70.8,318.8 70.2,319 69.6,319 68.9,319.3 68.6,318.9 67.7,318.7 67.4,318.3 67.2,317.8 66.7,317.2 66.5,316.5 66.3,316.1 
				66.1,315.7 66.2,315.3 66.3,314.1 66.4,313.5 66.7,312.8 66.4,312.8 66.7,312.8 66.6,312.5 66.5,312.1 66.5,311.5 66.7,311.2 
				67.1,310.8 67.9,310.4 68.7,309.8 69.3,309.6 69.8,309.5 70.4,309.7 71.1,309.6 71.7,310 72.3,310.1 72.6,309.9 72.9,310 
				73.1,309.9 72.9,309.8 72.9,309.4 72.8,309.2 73.1,309.1 73.7,309 74.4,309.1 75.3,309 75.8,309.2 76.2,309.6 76.4,309.6 
				77.2,309.3 77.5,309.4 78.1,310.1 78.3,310.5 78.2,311.1 78.3,311.4 78.7,312.1 79.1,312.8 79.4,313 79.5,313.4 79.9,313.5 
				80.2,313.4 80.3,312.9 80.4,312.5 80.4,312 80,311 80,310.6 79.7,310 79.4,309.3 79.3,308.7 79.4,308.1 79.8,307.6 80.2,307.2 
				81.1,306.7 81.2,306.4 81.6,306.1 82,306 82.5,305.5 83.4,305.3 83.9,304.7 83.8,303.8 83.7,303.5 83.5,303.5 83.4,302.7 
				82.9,302.4 83.4,302.5 83.2,302 83.4,301.6 83.5,302.4 83.9,302.7 83.6,303.2 83.7,303.3 84.2,302.6 84.4,302.3 84.4,302 
				84.2,301.8 84.1,301.4 84.3,301.6 84.5,301.6 84.5,301.8 85.1,301.2 85.3,300.6 85.1,300.5 85.3,300.3 85.3,300.4 85.8,300.4 
				86.9,300.2 86.7,300 85.5,300.2 86.2,299.9 86.6,299.9 87,299.8 87.6,299.7 88,299.7 88.5,299.6 88.6,299.3 88.3,299.1 
				88.4,299.5 88.1,299.4 87.8,299 87.8,298.5 88,298.3 88.4,297.8 89.2,297.6 90.1,297.3 90.9,296.9 90.8,296.6 90.3,296.1 
				90.3,295 90.3,296.1 90.8,296.6 91.7,296.5 92.9,296.5 91.6,297.2 91.6,297.9 92.2,298 93.1,297.4 93.9,297 95.7,296.5 96.7,296 
				96.1,295.7 96.1,295 95.3,296 94,296.1 92.9,295.7 92.7,295.1 92.4,294.1 93.2,293.6 92.4,293.2 91.3,293.3 89.6,294 88.3,295.1 
				87.6,295.2 88.5,294.4 89.7,293.3 90.7,292.9 91.4,292.3 92.2,292.3 93.4,292.3 95.1,292.5 96.5,292.3 97.5,291.6 98.8,291.3 
				99.4,291 100,290.7 99.9,289.8 99.6,289.5 99,289.4 98.7,288.6 98.1,288.4 96.8,288.1 96.1,287.7 95.1,287.2 95.4,286.7 
				94.5,285.7 93.4,284.6 92.8,283.8 92.3,284.2 91.5,285.2 90.4,285.6 89.8,285.1 89.1,285 88.8,283.9 88.8,283.2 87.4,283.2 
				87.1,282.8 86.2,282.4 85.4,282.1 84.7,282.3 83.9,282.2 82.5,282 82,282.2 82.3,283.5 82.6,284.2 81.7,285.1 82.6,285.8 
				83.2,286.5 83.2,287 82.8,287.6 81.9,288.2 80.6,288.6 81.2,289 81.6,290.4 81.2,291.2 80.5,291.5 79.3,290.7 78.8,289.8 
				78.5,288.9 78.6,288.2 77.8,288.1 76.4,288.1 75.6,287.7 74.6,287.5 74,287.1 73.2,286.8 71.7,286.4 70.6,286.6 70.2,285.9 
				69.9,285.1 68.7,285 68.7,284 69,283.4 69.9,282.4 70.9,281.7 71.8,281.6 71.9,281.1 72.5,280.7 73.7,280.7 74.6,280.1 
				74.8,279.7 75.6,279 75.8,278.6 76.7,278.9 77.8,278.7 79.3,278.1 79.4,277.7 78.9,277.3 79.5,276.8 79.4,276.4 78.3,276 
				77.2,275.9 76,275.8 76,276.7 75.4,277.5 74.6,278.1 73.8,277.5 74,276.9 73.1,276.3 72,277 72,276.1 70.5,276 71.2,275.5 
				70.1,274.6 69.3,274.2 68.3,274.1 67.3,274.7 67.2,275.6 68.2,276 69,276.5 68.7,277.3 68,277.3 67.5,278 67.5,277.2 66.3,276.9 
				65.6,277 65.7,277.6 64.5,277.5 63.3,277.7 61.8,277.3 60.9,277.4 60.1,276.9 59.5,276.7 58.8,276.8 57.9,276.8 57.3,277.1 
				58.2,277.5 57.3,277.9 56.4,277.4 55.8,277.5 53.6,277.6 52.1,277.5 53.3,277 52.2,276.6 51.4,276.7 50.3,276.5 48.4,276.2 
				47.2,275.9 46.2,275.8 45.9,276.1 44.9,276.2 44.8,275.6 43.8,276.1 42.4,275.4 41.8,275.3 41.7,275.7 41.1,275.9 40.5,275.5 
				39.2,275.8 38,276.1 36.8,276 35.8,276.3 35.1,276.6 34.3,276.5 33,276.1 31.5,275.9 30.7,275.8 29.4,275.6 28.4,275.7 
				27.8,275.6 26.2,275.5 24.5,275.3 23.7,275.3 22.5,275.2 22.5,275 21.2,275 20.8,275.1 20.2,274.7 19,274.6 17.8,275 17,275 
				15.5,275.3 14.7,275.4 13.9,275.8 13.7,276.2 12.7,276.6 11.3,276.6 10.8,277.1 11.9,277.4 12.7,277.7 13.3,278.1 14.3,278.5 
				14.9,279 13.2,279 13.3,278.6 12.7,278.6 10.9,279 9.8,279.4 10.8,279.8 11.1,280.2 12.3,280.4 13.4,280.3 14.1,280.5 
				14.3,280.3 15.1,280.1 15.6,280.1 15.1,280.4 15.5,280.6 15.6,281 15,281.2 14.5,281.1 13.8,281.5 13.3,281.4 12.6,281.5 
				12.3,281.9 11.7,282.4 11.4,282.9 12,283.2 12,283.7 12.5,283.9 13.2,284.3 14.3,284.1 14.8,284.4 14.6,284.7 14.7,285.2 
				15.2,285.2 16,284.9 16.3,285.3 16.5,285 17,285.4 17.5,285.1 17.7,285.3 18.6,285 18.2,285.5 18.1,286.2 17.5,286.5 17.3,286.6 
				16.2,287.1 15.8,287.5 14.8,287.6 14,288 13.2,288.3 12.3,288.7 12.4,288.8 13.8,288.6 14.5,288.3 15.3,288 16,287.8 16.6,287.9 
				17.5,287.5 17.8,287.1 19,286.7 19.2,286.3 20,286 20.9,285.7 21.7,285.1 21.1,284.7 22.2,284.1 22.8,283.5 23.8,283 24,283.3 
				23.2,283.5 22.8,284.3 22.9,284.8 23.8,284.6 24.5,284.4 25.4,284.2 25.9,284.1 25.7,283.5 26.6,283.4 27.6,283.7 29.1,284.1 
				30.3,284 31.7,284.4 32.4,284.5 34.1,285.4 35,285.6 36.3,285.6 37.1,285.7 37.5,286.5 38.5,287.2 38.8,287.9 39.5,288.2 
				39.9,288.5 39.9,288.9 40.9,289.5 41,290.2 42.1,290.6 42,291.1 42.4,291.8 43.8,292.2 44.4,292.5 46,293.4 46.1,293.4 
				48.4,293.4 50.8,293.4 51.5,293.4 54,293.4 56.3,293.4 58.8,293.4 61.2,293.4 63.9,293.4 66.6,293.4 63.9,293.4 61.2,293.4 
				58.8,293.4 56.3,293.4 54,293.4 51.5,293.4 50.8,293.4 48.4,293.4 46.1,293.4 46.4,294.1 46.5,294.8 46.3,295 45.9,294.2 
				44.7,293.9 44.6,294.1 44.8,294.5 45.1,295.2 45.2,296.3 45.1,297.1 45,297.8 44.7,298.6 45,299.3 45,300 44.8,300.7 45.3,301.1 
				45.4,301.8 46,302.5 46.3,302.8 46.3,303 47,304.2 47.8,305 47.9,305.5 48.1,305.6 48.8,305.7 49.1,305.9 49.5,306 49.6,306.2 
				50,306.3 50.5,306.8 50.7,307.2 51,308 51.4,308.6 51.7,309.2 52,309.7 52.4,309.9 53,310.5 53,310.9 52.7,311.2 52.4,311.2 
				52.3,311.3 52.8,311.7 53.3,311.9 53.5,312.2 53.6,312 54.2,312.4 54.5,312.7 54.7,313.1 54.6,313.8 55,314 55.6,314.4 
				56.2,314.9 56.4,315.4 56.5,315.4 56.8,315 56.9,314.9 56.6,314.5 56.3,314.1 55.9,314.1 55.8,313.7 55.6,313.3 55.4,312.9 
				55.1,312.1 54.6,311.7 54.4,311.4 54.2,311.2 54,310.7 53.9,310.7 53.8,310.4 53.6,310.3 53.5,310.1 52.9,309.5 52.6,309.2 
				52.6,308.6 52.4,308.2 52.6,307.8 53,308.1 53.3,308 53.9,308.4 53.8,308.7 54.1,309.3 54.6,310 54.6,310.2 55,310.6 55.4,311.1 
				55.9,311.1 56.1,311.7 56.5,312.1 57,312.3 56.8,312.8 57,313 57.7,313.4 58.1,313.9 58.9,314.6 59.6,315.4 59.8,315.8 
				59.9,316.2 60.2,316.5 60.2,316.8 60,317 60.1,317.3 59.8,317.4 60,317.8 60.4,318.3 61.3,318.8 61.6,319.1 62.4,319.4 
				62.9,319.5 63.1,319.7 63.8,320.1 64.7,320.5 65.3,320.6 66,321 66.6,321.1 67.2,321.4 67.6,321.3 68.2,321 68.7,320.9 
				69.3,321.1 69.7,321.4 70.7,322.3 71.1,322.6 71.4,322.8 71.9,322.8 72.4,323 72.6,323.1 73,323.2 73.4,323.4 73.7,323.5 
				74.1,323.5 74.2,323.3 74.4,323.3 74.6,323.6 74.5,323.7 74.4,323.5 74.3,323.7 74.7,324 75.1,324.3 75.2,324.6 75.6,324.9 
				75.9,325.2 75.7,325.4 75.9,325.5 75.8,325.7 75.8,326 75.9,326.2 76.2,326.2 76.4,326.5 76.5,326.3 76.5,326 76.7,326.2 
				76.7,326.4 77,326.5 77.3,326.7 77.5,326.9 77.6,327.1 77.5,327.2 77.6,327.4 78.1,327.6 78.2,327.7 78.2,327.5 78.5,327.5 
				78.8,327.6 79.1,327.7 79.2,328 79.5,328.1 79.6,327.9 79.8,328.4 80.1,328.4 80.2,328.3 80.5,328.2 80.1,327.7 80.2,327.5 
				80.3,327.5 80.7,327.3 80.8,327 81.2,326.9 81.6,327.2 81.7,327.5 81.9,327.5 81.7,327.7 81.9,328.2 82.2,328.4 82.5,328.9 
				82.6,329.6 82.4,329.8 82.6,330.6 82.5,331.1 82.8,331.3 82.5,331.7 82.1,332.2 81.7,332.3 81.5,332.6 81.6,333 81.3,333.1 
				81.4,333.3 80.8,333.7 80.4,333.8 80.4,334.2 80.1,334.7 80,335.2 79.7,335.4 79.8,336.1 79.7,336.4 80.2,336.7 80.5,336.3 
				80.6,336.7 80.2,337.3 79.6,337.9 79.3,338.5 79.7,339.3 79.5,339.6 80,340 80.7,340.5 80.9,341.1 81.2,341.5 82,343.2 
				82.8,344.7 83.5,345.8 83.3,346.1 83.7,346.8 84.3,347.3 85.7,348.2 87.3,349 87.4,349.4 88.2,349.9 88.3,351 88.4,352.4 
				88.2,354.3 87.9,356 87.8,357.6 87.3,358.7 87.4,359.7 87.2,360.4 87.3,361.7 87,362.9 86.4,364.3 85.9,365.6 85.6,365.6 
				85.7,366.6 85.9,367.4 85.5,368 85.3,369.5 85,370.8 85.5,370.9 85.8,369.8 86.3,370 85.9,371.8 85,371.5 84.7,372.9 83.9,373.6 
				85.2,373.9 84.3,374.5 84,375.3 84.1,376.8 84.5,377.3 84.3,377.8 84.5,378.4 85.5,378.9 86.4,379.4 87.3,379.7 87.7,379.7 
				87.8,378.9 88.5,378.6 88.9,378.4 89.6,378.4 89.6,378.4 90,378.4 89.4,378 89.2,377.1 89.5,376.7 90.2,376.4 90.8,375.4 
				91.7,374.9 92,374.1 91.2,374 90.4,373.4 90.7,372.7 91.3,372.3 92,372.3 92.2,371.8 92.3,371 93,370.5 93.7,370.2 93.5,369.8 
				93.1,370 92.5,369.8 92.4,368.9 92.7,368.7 93.5,369 94.3,368.9 94.8,368.6 94.6,368.2 94.8,367.6 94.6,367 95.5,367.1 97.1,367 
				98.3,366.5 99.1,365.4 99.1,365 98.6,364.7 98.7,364.1 97.7,363.4 97.8,362.9 97.8,362.4 97.8,362.9 98.3,363.4 98.8,363.4 
				99.5,363.7 100,363.6 100.6,363.8 101.5,363.3 101.8,362.8 102.3,362.3 102.7,361.5 103.3,361.1 104,360.5 104.9,359 
				105.4,358.5 105.6,358.1 105.8,357.3 105.6,356.8 105.7,356.2 106.4,355.3 107.4,354.7 108.3,354.4 108.8,354 110.1,353.7 
				111,353.7 111.1,353.2 111.8,352.9 111.9,352 112.7,350.9 112.9,349.8 113.1,349.5 113.2,348.9 113.4,347.6 113.4,346 
				113.6,345.4 113.8,345.4 114.4,344.7 114.9,343.7 116.1,342.6 116.5,342 116.8,340.6 116.7,340.1 			"/>
			<polygon class="st6" points="81.9,313.4 81.7,313.9 82,314.1 82.2,314.6 82.4,314.6 82.4,314.1 82.2,313.4 			"/>
			<polygon class="st6" points="82.7,312.8 82.9,312.2 82.2,311.8 82.2,311.9 82.6,312.3 82.6,312.7 			"/>
			<polygon class="st6" points="81.7,312 81.3,312 81.3,312.3 82.2,312.2 82.2,312 			"/>
			<polygon class="st6" points="50.2,271.3 51.3,271.5 55,271.4 53.3,271.7 53.4,272 54.6,272 56.6,271.6 59.3,271.5 59.8,271.1 
				59.7,270.7 58.8,270.6 58.1,270.8 57.8,270.5 57.5,270.1 56.7,270 56,270.3 57.1,271.1 55.7,271 54.3,270.5 52,270.3 51.3,270.5 
							"/>
			<polygon class="st6" points="90.2,275.6 89.5,275.3 87.5,274.9 86.7,274.4 85.2,274.6 85.1,274.2 84,273.8 82.2,273.4 
				81.4,273.7 79.9,274 80,273.4 78.6,272.5 76.6,272.9 75.8,273.6 75.2,273 75.8,272.5 73.7,272.7 72.9,273.1 72.3,273.8 
				72.5,274.7 73.7,274.7 72.8,275.1 73.5,275.4 74.8,275.5 76.5,275.7 79.4,275.9 80.9,275.8 81.3,275.6 81.9,275.9 82.6,275.9 
				83.5,276.4 83,276.6 84.6,276.9 85.8,277.3 86.1,277.6 86.4,278 85.3,278.8 85,279.2 85.3,279.5 83.7,279.6 82.2,279.6 
				81.6,280.3 82.3,280.6 84.6,280.4 84.6,280.2 85.8,280.6 87,281 86.7,281.3 87.7,281.7 89.4,282.2 91.6,282.5 91.4,282.2 
				90.6,281.7 89.5,281 91.5,281.6 92.5,281.9 92.8,281.3 92.2,280.4 91.9,280.2 90.8,279.8 90,279.3 90.1,278.9 91.1,278.7 
				92.4,279.5 93.4,279.9 94.8,278.9 95,278.3 93.8,278.3 92.6,277.5 91.3,277.3 89.4,276.8 90.9,276.4 			"/>
			<polygon class="st6" points="45.9,274.9 48,274.5 48,274.2 49,273.6 51,273 52,272.8 51.1,272.4 50.3,272.2 48.3,272.1 47.1,272 
				44.4,272.1 45.2,272.6 44.5,273.2 44,273.8 43.6,274.1 45.5,274.6 			"/>
			<polygon class="st6" points="48.5,270.6 49.9,270.3 50.7,270.2 51.3,269.9 51.4,269.3 50.3,269.4 49.1,269.4 47.4,269.9 
				46.1,270.5 47.2,270.7 			"/>
			<polygon class="st6" points="61,268.4 60.3,268.6 62,268.7 63.4,269 64.7,269 64.4,268.7 63.8,268.3 61.6,268 60,267.9 
				60.1,268.2 			"/>
			<polygon class="st6" points="65.9,268.9 66.6,269.1 67.8,268.9 68,268.6 67,268.3 66.6,268.3 65.5,268.2 65.6,268.6 			"/>
			<polygon class="st6" points="56.7,268.5 55.6,268.3 55.2,268.3 54.4,268.5 54.3,268.6 55.7,268.6 			"/>
			<polygon class="st6" points="56.2,269.2 56.5,269 55.4,268.8 54.2,268.9 53.5,269.2 54.7,269.5 			"/>
			<polygon class="st6" points="95,293.1 94.2,292.8 93.2,292.6 92.9,292.6 93.6,293 94.7,293.3 95.1,293.3 			"/>
			<polygon class="st6" points="72.3,266.2 72.9,266.6 74.4,266.9 77.2,266.8 79,266.9 77.7,267.2 77.1,267.1 74.9,267.1 
				75.2,267.5 76.4,267.8 76.1,268.1 74.7,268.3 74.1,268.7 75.4,268.8 76.5,269.4 74.3,269 73.8,269.1 74.2,269.7 72.7,269.9 
				72.8,270.3 74.4,270.3 75.6,270.4 77.9,270.3 80,270.5 82.2,270 82.1,269.8 80.8,269.8 80.7,269.6 81.8,269.4 82.2,269.1 
				83.4,268.8 84.2,268.5 83.5,268.1 84.1,268 82.9,267.9 85.4,267.8 85.9,267.6 87.5,267.5 88.9,266.8 90.2,266.5 92.1,266 
				90.4,266 91.1,265.8 93,265.7 95,265.3 95,265.1 93.6,264.9 91.8,264.8 89.7,264.7 87.9,264.6 86.2,264.6 83.9,264.7 83.5,264.6 
				81,264.7 79.6,264.8 78.5,264.9 77.9,265.3 77,265.1 76.1,265.1 74.9,265.4 73.3,265.5 72.4,265.5 71.2,265.7 71.3,266 			"/>
			<polygon class="st6" points="100,291.4 100.2,291.2 99.8,291.2 99.1,291.5 98.6,291.9 97.8,293.3 97.1,293.8 97.5,294 97,294.3 
				97.1,294.5 98.7,294.6 99.5,294.5 100.3,294.7 99.7,295.1 100.2,295.1 101.1,294.4 101.3,294.5 101.2,295.2 101.7,295.4 
				102.1,295.4 102.4,294.6 102.2,294.1 102.1,293.6 101.5,293.8 101.7,293.2 100.9,292.9 100.6,293.1 99.9,292.9 100.1,292.6 
				99.6,292.4 99.1,292.7 99.6,292 			"/>
			<polygon class="st6" points="93.6,295.4 93.3,295 93,295.3 93.2,295.6 94.2,295.9 94.5,295.9 94.9,295.5 94.2,295.5 			"/>
			<polygon class="st6" points="84.3,277.9 84.4,277.7 84.4,277.4 83.8,277.1 83,277.3 82.7,277.7 82.9,278.1 83.8,278.1 			"/>
			<polygon class="st6" points="45.5,293.8 45.2,293.3 44.4,293 44,292.6 43.8,292.3 43,292.2 42.5,292.1 41.7,291.9 41.6,292.1 
				41.9,292.5 42.7,292.7 42.9,292.9 43.6,293.2 43.8,293.5 45.2,293.9 			"/>
			<polygon class="st6" points="77.3,282 77.4,282.3 78,282.3 78.9,281.8 78.9,281.7 77.8,281.7 			"/>
			<polygon class="st6" points="65.8,275.6 65.3,275.9 64.6,276.2 65.7,276.6 66.3,276.5 67.4,276.8 67.9,276.5 67.4,276.1 
				67.2,276 66.7,275.8 			"/>
			<polygon class="st6" points="80.4,281 79.8,280.7 79.2,280.8 79.1,280.4 78.2,280.1 77.3,279.8 76.9,279.6 76.5,279.7 
				76.3,279.4 75.7,279.3 75.5,280.1 75.4,280.7 74.7,281.1 75.8,281.1 76,281.5 77.2,281.1 78,280.7 78.4,281 79.7,281.3 			"/>
			<polygon class="st6" points="63.6,275.7 62.2,275.3 60.8,274.9 60.6,274.3 60.1,273.5 59.2,273.1 58.4,273 57.7,273.1 58.3,274 
				57.8,274.3 57.2,273.5 56.5,273.2 55.5,273.6 54.4,273.2 52.7,273.5 53,273.1 52.2,272.9 50.1,273.4 49.5,273.8 48.8,274.4 
				50.3,274.6 51.5,274.6 49.6,274.9 50,275.3 51.2,275.3 52.9,275.2 54.5,275.4 53.4,275.5 52.3,275.5 51,275.6 50.5,275.7 
				51.5,276.4 52.2,276.3 53.3,276.5 53.7,276.9 55.2,276.9 57.2,276.7 58.7,276.4 59.6,276.4 61,276.6 62.5,276.8 62.7,276.4 
				62.2,276.1 63.5,276 			"/>
			<polygon class="st6" points="60.8,272.8 60.2,272.6 59.1,272.7 58.8,272.8 60.1,273.4 			"/>
			<polygon class="st6" points="66.7,272.8 66.5,272.5 65.1,272.6 64.1,272.5 63.2,272.9 64.1,273.4 62.4,273.3 62.4,273.6 
				64.4,274.2 65,274.6 65.7,274.6 67.1,274.3 67.2,273.5 66,273.2 			"/>
			<polygon class="st6" points="80.7,282.7 81.1,282.3 80.8,282.1 80.5,282.1 80.2,282.4 80.2,282.4 80.4,282.7 			"/>
			<polygon class="st6" points="68.4,267.8 69.9,267.8 69.3,268 69.3,268.3 70.1,268.7 71.8,268.8 73.2,268.7 74.7,268.1 
				75.8,267.9 74.8,267.6 74.2,267 72.9,266.9 71.5,266.7 70.5,266.2 68.6,266.3 69,266.5 68.2,266.5 67.6,266.8 67.1,267.2 
				67.6,267.5 			"/>
			<polygon class="st6" points="69,274 69.9,273.4 70.8,273.2 72,272.5 70.5,272.3 68.8,272.2 68,272.5 67.6,272.8 67.6,273.2 
				68.1,274 			"/>
			<polygon class="st6" points="73.9,272 75.6,272 77.9,271.9 78.9,272 80.1,271.8 80.6,271.6 80.4,271.2 79.6,270.9 78.3,270.8 
				76.6,270.9 75.3,271.1 74.2,271 73.1,271 72.6,270.8 71.7,270.6 71.8,270.3 71.2,270 69.6,270 68.7,269.7 67,269.7 66.7,270 
				67.7,270.3 69.3,270.4 70.1,270.8 70.2,271.2 70.5,271.6 72.6,271.9 			"/>
			<polygon class="st6" points="64.6,271.6 65.9,271.5 66.3,270.9 66.2,270.4 65.6,270 65.6,270.2 64.4,270.1 63.2,270.4 
				62.3,270.4 62.4,271 63.7,271 63.7,271.5 			"/>
			<polygon class="st6" points="79.8,272.9 80.6,273.3 80.9,273.4 81.8,273.3 82.6,273.3 83.5,273.3 83.4,273.1 82,272.6 
				80.2,272.5 79.8,272.6 			"/>
			<polygon class="st6" points="69.1,271.8 69.5,271.5 69.2,271.3 68.5,271 67.4,271.2 67,271.6 67.9,271.8 			"/>
			<polygon class="st6" points="69.3,269.4 69.4,269.3 68.9,269.1 67.3,269.1 67.5,269.3 69,269.4 			"/>
			<polygon class="st6" points="233.4,318.4 233.7,318 233.5,317.7 233.1,317.6 232.2,317.9 231.8,318.3 231.8,319 232.5,319.2 
				233.2,318.8 			"/>
			<polygon class="st6" points="84.5,317.8 85,317.7 85.1,317.5 84.5,317.1 83.9,317.1 84,316.9 83.5,316.7 83.3,316.7 82.8,316.3 
				82.1,315.8 81.8,315.6 81,315.7 80.7,315.4 80,315.1 79.3,315.1 78.6,315 78.4,315.1 77.8,315.2 77.4,315.4 77.1,315.6 
				76.9,315.9 76.5,316.1 76.8,316.2 77.2,316.1 77.3,315.9 77.7,315.9 78.2,315.5 79,315.5 78.7,315.7 79,315.9 80,316 80.3,316.2 
				81,316.4 81.5,316.4 81.7,316.9 81.9,317.1 82.5,317.2 82.8,317.4 82.3,317.9 83.4,317.8 84,317.8 			"/>
			<polygon class="st6" points="171.7,304.8 171.1,304.8 171,305 170.9,305 170.5,305 170.7,305.4 171.1,305.5 171.9,305.2 
				171.9,305.1 171.9,304.9 172.4,304.6 			"/>
			<polygon class="st6" points="154.4,288.5 154.8,287.8 154.6,287.4 153.4,287.7 153.5,288 			"/>
			<polygon class="st6" points="97.2,377.7 96.5,377.5 95.5,378 95.9,378.4 96.6,378 97,378.3 98.1,378.1 98.3,377.8 97.7,377.4 			
				"/>
			<polygon class="st6" points="288.6,348.2 288.3,348.3 287.9,348.4 288,348.7 288.6,348.6 289.1,348.4 289.1,348.3 289.2,347.9 
				289.1,347.9 			"/>
			<polygon class="st6" points="287.6,349.1 287.2,349 286.9,349.3 287,349.7 287.4,349.8 287.9,349.7 288,349.3 287.8,349 			"/>
			<polygon class="st6" points="152.1,299.8 152.3,299.1 152.2,298.4 151.7,298.7 151.5,299 151.7,299.6 			"/>
			<polygon class="st6" points="140.2,288.1 140.6,287.7 140.9,287.9 140.6,288.3 140.8,288.5 141.7,288.6 141.8,288.7 142.3,289.2 
				142.2,289.7 141,289.6 140.8,290.1 141.3,290.6 140.4,290.9 140.6,291.2 141.9,291.3 141.9,291.3 141.2,291.5 140,292.4 
				140.4,292.6 141,292.2 141.7,292.3 142.3,292 142.6,292.1 144,291.9 145.1,291.9 145.8,291.5 145.5,291 145.9,290.8 146,290.2 
				145,290.1 144.8,289.7 144.3,288.8 143.8,288.6 143,287.6 143,287.6 142.1,287.5 142.9,286.8 143.1,286.1 142.2,286.1 
				141.4,286.2 142.2,285.3 141.3,285.3 140.6,285.3 140,286 139.7,286.8 140.1,287.3 			"/>
			<polygon class="st6" points="125.6,275.5 123.5,275.5 124.4,275.1 124.2,274.5 125.1,275 125.8,275.3 127.2,275.1 126.9,274.5 
				125.8,274 124.8,273.7 125.2,273.5 126.8,273.9 126.7,273.5 125.7,272.9 126.8,272.9 128,272.8 128.3,272.5 127.3,272.1 
				129.1,272.1 128.1,271.4 128.9,271.3 128.7,270.6 127.3,270.1 128.6,269.9 129.8,269.8 128.9,269.3 128.8,268.3 129.5,267.8 
				130.4,267.2 128.6,267.1 131.1,267 131.6,266.8 134.9,266.2 134.4,265.9 132,265.7 128.1,266 126.1,266.3 126.9,265.8 
				126.3,265.5 124.7,265.8 122.3,265.5 119.4,265.6 119.1,265.4 123.4,265.4 126.4,265.3 127.9,265 122.9,264.3 116.5,264.2 
				113.7,264.3 112.6,264.6 109.8,264.6 107.1,265.1 107,265.4 108.9,265.9 107.3,265.6 106.1,265.6 104.2,265.2 102.1,265.7 
				101.2,265.4 98.8,265.5 96.3,265.6 94.4,265.8 94.7,266.2 93.6,266.3 90.8,266.9 90.1,267.2 92.2,267.5 91.9,267.8 89,268.2 
				85.9,268.6 85.8,268.9 87.7,269.3 91.1,269.5 89.5,269.5 87.4,269.8 88.8,270.3 89.7,270.6 91.6,270.5 93.8,270.5 95.5,270.6 
				97.6,271.1 97.6,271.4 98.7,271.7 99.6,272.6 100.3,273.2 100.7,273.5 99.8,274.3 100.5,274.5 101.3,274.4 102,274.7 
				103.4,275.2 101.8,275 101,275 100.7,275.5 100.8,276 101.8,276.3 102.5,276.2 102.9,276.1 103.8,275.8 103.7,276.4 103.3,276.8 
				102.1,277.1 101.3,278.1 101.9,278.4 101.6,279 102.7,279.8 102.8,280.5 103.2,281.1 104.6,282.1 105.1,282.9 105.9,283.4 
				107.5,283.4 108.7,284.1 109.8,284 110.3,283.2 110.6,282.5 110.3,281.9 111.6,281.2 112,280.6 112,280 112.7,279.5 113.9,279.3 
				114.9,279.1 115.5,279.1 117.2,278.5 118.3,277.6 119.2,277.3 120,277.3 122.4,277 124.6,276.3 126.7,275.6 			"/>
			<polygon class="st6" points="164.7,304.8 164.1,304.8 163.7,304.5 163.5,304.9 164.5,305.1 164.5,305.2 165.6,305.1 165.7,304.9 
				165.3,305 165.3,304.8 			"/>
			<polygon class="st6" points="85.7,319.2 86.2,319.3 86.6,319.2 87.1,319.4 87.2,319.6 87.4,319.7 87.7,319.2 87.9,319 
				88.1,319.2 88.4,319.2 88.5,319 88.8,319.1 89.2,319 89.5,319.2 89.8,318.9 89.4,318.6 89.1,318.5 89.1,318.3 88.7,318.3 
				88.5,318 88.3,318 87.8,317.8 87.2,317.8 87.1,318 86.4,317.8 85.9,317.8 85.7,318 86.3,318.2 86.2,318.5 86.6,318.8 86.3,319 
				85.7,319 85,318.8 84.9,319.1 85.3,319.4 			"/>
			<polygon class="st6" points="236.6,341.8 237.5,341.5 236.5,341 235.3,340.8 235,340.3 233.5,339.9 233.3,340.2 231.8,340.2 
				231.7,339.9 231.4,339.8 230.7,339.5 229.7,339.4 229.2,340.2 229.9,340.3 230.1,340.6 231.5,341 231.9,340.9 232.4,341 
				233.4,341.3 234.1,341.4 235,341.5 235.7,341.5 			"/>
			<polygon class="st6" points="247.4,333.1 247.3,332.7 247,333 246.9,333.6 247.1,334.7 247.4,335.2 247.6,335.1 247.3,334.7 
				247.4,334.2 247.9,334.3 247.9,333.5 247.8,333.2 			"/>
			<polygon class="st6" points="245.7,337.1 245.9,337.5 246.4,337.6 246.7,337.4 246.5,337.1 			"/>
			<polygon class="st6" points="232.1,334.1 232.2,334.9 232.6,335.6 233,335.8 233.1,336.9 233.8,337 234.3,337 234.6,337.4 
				235.5,337.1 235.9,337.4 236.5,337.4 236.8,337.9 237.7,337.5 237.8,337.8 238.1,336.6 238.2,335.7 238.9,335.1 238.9,334.4 
				239.2,333.8 240.1,333.7 239.2,333 239.4,332.6 238.8,331.8 239.2,331 239.8,330.7 239.7,330.3 240.2,330.3 240.3,330 
				239.6,329.7 239.1,329.5 239,329.1 238.6,328.7 238.3,328.7 237.9,329.3 237.3,329.9 236.6,330.4 236.3,330.7 235.9,331.2 
				235.3,331.9 234.3,332.1 234,332.2 233.8,332.9 233.2,333.1 232.6,332.8 232.6,332.8 232.2,333.4 			"/>
			<polygon class="st6" points="247.4,336.9 247.3,337.3 247.8,337.4 248.3,337.3 248.9,337.4 249.6,337.7 249.3,337.1 248.4,336.8 
							"/>
			<polygon class="st6" points="229.6,338.1 229.8,337 229.4,336.5 228.8,336.4 228.5,336 228.4,335.4 228.1,335.4 227.6,335.1 
				228,334.4 227.4,334 226.9,333.3 226.2,332.7 225.4,332.7 224.6,331.8 224.2,331.5 223.6,330.9 222.9,330.1 221.6,329.9 
				221.1,329.9 221.2,330.3 222,331.2 222.6,331.7 223,332.4 223.8,333 224.1,333.6 224.3,334.3 225,335 225.6,336.2 226,336.8 
				226.6,337.5 226.9,338 228,338.7 228.7,339.4 229.6,339.4 			"/>
			<polygon class="st6" points="240.4,335.6 240.3,336.3 239.9,336.8 240.2,337.4 240.5,337.4 240.6,338.2 240.4,339 240.8,339.2 
				241.3,339.1 241.2,337.9 241.2,336.9 241.7,336.7 241.6,337.5 242.2,338 242.1,338.3 242.3,338.5 243.1,338.2 242.7,338.9 
				243,339.2 243.5,339 243.5,338.4 242.8,337.4 242.9,337.1 242.1,336.1 242.8,335.8 243.2,335.3 243.5,335.4 243.6,335 
				242.1,335.3 241.7,335.7 241,334.9 241.1,334.3 241.8,334.2 243.1,334.1 243.9,334.3 244.5,334.1 245.1,333.3 245,333.1 
				244.2,333.7 243.3,333.8 242.3,333.6 241.6,333.4 241,334 240.8,334.4 			"/>
			<polygon class="st6" points="252.3,339.6 252.3,340.3 252.7,339.7 252.7,339.3 252.6,339 252.4,339.3 			"/>
			<polygon class="st6" points="241.5,343.1 241.6,342.8 241.3,342.6 240.9,342.3 240.1,342.5 241.2,343.1 			"/>
			<polygon class="st6" points="243.1,341.7 243.3,341.3 242.5,341.6 242,341.6 241.5,341.4 240.9,341.5 240.9,341.9 241.9,342 			
				"/>
			<polygon class="st6" points="239.5,341.5 239.2,341.3 239,341.6 238.6,341.6 238.3,342 238.7,342 239.3,341.9 240.2,341.8 
				240,341.4 			"/>
			<polygon class="st6" points="137.8,291.1 139.2,290.6 139.8,289.9 139.7,289.3 140.1,288.7 139.2,288.2 138.6,288.2 138,288.6 
				136.9,289.3 137.3,290.1 136.6,291 			"/>
			<polygon class="st6" points="133.7,279.8 132.8,279.2 133,278.7 131.7,278.6 130.4,279.1 129.4,278.8 128.1,279.3 126.9,278.7 
				125.7,278.9 125.1,279.4 126.8,279.6 126.8,279.8 125.4,280 127.2,280.4 126.4,280.8 128.6,281 129.7,281.2 130.4,281 
				132.7,280.4 			"/>
			<polygon class="st6" points="156.5,302.5 155.7,302.6 154.7,302.5 154.6,303 155.7,303.4 156.1,303.5 156.8,303.8 156.9,303.4 
				156.8,303.1 157.1,302.4 			"/>
			<polygon class="st6" points="151.4,300.6 151.4,301.6 151.7,301.9 152,301.6 152.4,301.6 152.5,300.5 152,299.9 151.6,300.2 
				151.2,300.1 			"/>
			<polygon class="st6" points="82.9,319.1 82.4,319 82.2,319 81.9,319 81.8,319.2 82.3,319.5 82.7,319.6 82.9,319.5 83.5,319.5 
				83.4,319.3 			"/>
			<polygon class="st6" points="251.6,306.6 252,306.4 252.3,306.6 252.8,306.1 252.7,305.9 252.1,305.7 251.8,306 251.3,305.9 
				250.9,306.4 250.9,306.8 251.4,307.1 			"/>
			<polygon class="st6" points="257.2,298.1 256.8,298.8 256.9,299.6 257.8,299.6 258.3,298.7 259.5,299.3 260.2,298.4 261.4,298.2 
				261.2,297.3 260.7,297.6 260.1,297.4 259.5,297.1 258.5,296.3 258.3,296.9 258.1,298.1 			"/>
			<polygon class="st6" points="256.1,302.8 254.9,303.6 254.4,303.2 253.5,304.7 252.6,304.5 251.1,304.8 250.5,305.4 249.7,305.8 
				249.2,306.3 248.5,306.6 248.8,307.1 249.3,307.4 249.1,308.1 249.5,308.5 250,308.1 250.6,306.7 249.7,306.1 250.7,306.1 
				251.6,305.7 253,305.5 253.1,306.1 253.6,306.4 254.7,305.5 256.1,305.4 257.2,305 257.6,304.4 257.5,304 257.8,303.3 
				257.7,302.5 258.5,301.6 258.5,301 258.1,299.8 257.2,299.9 256.9,300.5 257,301.4 256.5,302.4 			"/>
			<polygon class="st6" points="209.5,326.7 208.9,326.3 208.6,327.6 208.7,328.8 209.1,329.5 209.8,329.3 210.1,329 210.3,328.2 
				209.9,327.3 			"/>
			<polygon class="st6" points="184.8,345.8 184.6,345.3 184.4,344.9 184.1,344.6 183.9,344.9 183.8,345.5 183.4,346 183.1,345.9 
				183.2,346.3 182.9,346.7 182.3,347.2 181.8,347.7 181.4,347.7 181.2,347.9 180.7,348 180.3,348.1 180.2,348.6 179.9,349.1 
				180,349.8 180.1,350.4 180.3,350.8 180.3,351.3 179.9,351.9 179.9,352.2 179.5,352.4 179.4,353 179.4,353.6 179.7,354.2 
				179.8,355 180,355.4 180.6,355.7 181.1,355.9 181.8,355.6 182.4,355.4 182.8,354.4 183.1,353.3 183.6,351.7 184,350.5 
				184.3,349.5 184.4,348.8 184.6,348.6 184.6,348.3 184.5,347.6 184.6,347.4 184.9,347.9 185.1,347.6 185.1,347.2 184.9,346.9 			
				"/>
			<polygon class="st6" points="278.7,353 278.3,352.7 277.7,352.1 277.4,351.9 277,351.6 276.6,351.3 276.3,351.3 276.4,351.6 
				276.9,352.2 277.4,352.6 278,353 278.4,353.3 			"/>
			<polygon class="st6" points="283.6,369.2 283.5,368.8 283.3,368.5 282.7,368.9 282.6,369.3 282.3,369.5 282,370.1 281.5,370.6 
				280.8,371 280.2,371.4 279.7,371.5 278.7,372.3 278.2,373 278.4,373.3 279.3,373.3 279.8,373.6 280.5,373.6 280.9,373.4 
				281.5,373 282,372.2 282.2,371.6 282.9,371.3 283.5,371.3 283.2,370.9 283.6,370.5 284.1,369.9 284.5,369.5 284.5,369.2 
				284.2,368.8 			"/>
			<polygon class="st6" points="287,366.3 286.5,366.3 285.8,366 285.7,365.4 285.3,365.1 285.3,365.7 284.7,364.8 284.5,364.1 
				283.9,363.8 283.5,363.4 283.2,363.4 283.5,364 284.1,364.8 284.5,365.1 284.5,365.3 284.8,365.8 284.9,366.4 284.7,367 
				284.1,367.3 284.1,367.6 285,368 285.2,368.4 284.8,369.1 285.1,369.2 285.3,369.5 285.9,369.1 286.3,368.5 286.6,368.1 
				286.7,367.9 286.6,367.6 286.8,367.3 287.4,367.3 287.7,366.9 287.9,366.1 287.5,366 			"/>
			<polygon class="st6" points="269.1,339.1 268.8,339 268.7,338.7 268.6,338.8 268.8,339.4 269.1,340 269.5,340.3 269.7,340.2 
				269.8,340 269.5,339.7 			"/>
			<polygon class="st6" points="265.1,338.7 265,338.7 264.9,339.1 264.4,339.2 263.7,339 263.6,339.3 264.1,339.5 264.8,339.8 
				265.2,339.8 265.6,339.6 266,339.4 266.2,339.1 266.6,339.1 266.9,338.6 266.9,338.1 266.7,338 266.2,338 266.3,338.5 
				265.9,338.8 265.6,339 265.2,339.1 			"/>
			<polygon class="st6" points="266.6,337.4 266.9,337.6 267.1,338 267.3,338.5 267.5,338.3 267.4,337.8 267.1,337.5 266.8,337.2 
				266.5,337 266.2,336.8 265.8,336.6 265.5,336.8 266.1,337 			"/>
			<polygon class="st6" points="263.1,339.6 261.8,339.1 261.6,338.6 261.2,338.1 260.6,337.7 259.2,337.2 257.8,336.7 256.9,336.5 
				256.3,336.2 255.6,335.9 254.9,335.9 254,336.4 253.3,337.3 252.5,336.8 252.3,335.4 252.1,335.1 250.9,334.8 250.4,335.1 
				249.4,335.3 249.7,335.7 250.4,335.8 250.7,336.3 251.9,336.3 252,336.6 251.4,336.5 250.6,336.8 251.2,337.3 251.2,337.6 
				251.3,337.9 251.6,337.9 251.9,337.4 253.1,338.2 253.8,338.3 255.3,339 255.7,339.7 255.9,340.6 255.4,340.9 255.1,341.5 
				256.1,341.5 256.3,341.3 257.1,341.4 257.8,342.1 258.6,342.1 259.1,342.3 259.7,342 259.6,341.4 260.1,341.1 260.8,340.9 
				261.8,341.2 262.2,342 262.7,342.4 263.3,343 264.1,343.1 264.8,343.2 265,343.4 265.5,343.3 265.6,343.1 264.8,342.8 265,342.6 
				264.4,342.5 264.4,342.1 264,342.1 263.5,341.2 262.7,340.7 262.6,340.1 263.3,340 			"/>
			<polygon class="st6" points="240.9,321.6 241,321.9 241.4,322.4 241.5,322.1 241.7,322.3 241.5,322.5 241.4,322.9 241.8,323 
				242.6,322.9 243.1,323.4 243.3,323.1 243.6,323.6 244.2,324 244.3,323.6 244,323.4 244.1,322.9 243.1,322.5 242.7,322.6 
				242.3,322.5 242.1,321.8 242.3,321.1 242.7,320.9 242.9,320.2 242.7,319.6 242.8,319.2 242.7,319 242.5,319.2 242,319 241.5,319 
				241.2,319.7 241.2,321 240.8,320.8 			"/>
			<polygon class="st6" points="241.6,323.8 241.9,324.3 242.1,323.5 241.9,323.2 241.2,323.2 			"/>
			<polygon class="st6" points="245.3,324.3 245.1,324 244.4,324 244.8,324.6 244.9,324.9 244.4,324.9 244.5,325.4 244.8,325.4 
				244.8,326 245.2,325.8 245,325.3 244.9,325 245.6,325.2 			"/>
			<polygon class="st6" points="243.3,325.4 243.2,325.9 243,326.1 242.8,326.3 243.3,326.9 243.6,326.7 243.8,326.1 244.1,325.9 
				244.2,325.1 243.6,325.9 243.7,325.3 			"/>
			<polygon class="st6" points="242.4,324.5 242.6,324.9 242.5,325.3 242.5,325.7 243,325.5 243.4,325.1 243.4,324.8 242.9,324.8 
							"/>
			<polygon class="st6" points="243.7,327.2 243.3,327.5 242.8,327.8 242.5,328.5 242.6,328.7 243.2,328.2 243.6,328.3 243.8,327.9 
				244.3,328.3 244.1,328.7 244.3,329.3 245.3,329.8 245.5,329.4 245.2,328.8 245.6,328.4 245.9,329.2 246.2,328.5 246.1,328 
				246,327.4 246,327.1 245.9,326.7 245.3,326.3 245.3,327 244.8,327 244.6,327.4 244,327.6 			"/>
			<polygon class="st6" points="240.1,325.8 239.6,326.4 239.1,326.9 238.7,327.5 239.7,326.7 240.1,326.1 240.7,325.6 240.5,325 
							"/>
			<polygon class="st6" points="90.8,319 90.7,319.1 90.7,319.5 91.2,319.4 91.8,319.4 92,319.2 91.9,319 91.5,319 			"/>
			<polygon class="st6" points="264.7,271.8 265.6,271.4 263.6,271.2 262.1,271.1 261.9,271.4 263.4,271.7 			"/>
			<polygon class="st6" points="186.8,273.8 185.9,274 186.1,274.5 187.5,274.7 187.7,275.1 190.3,275.2 190.8,275.1 189.3,274.4 
				189.1,273.7 190.4,272.9 191.6,272.1 194.1,271.3 196.5,270.9 199.4,270.5 199.9,270.2 199.3,269.9 197.8,270 196.4,270.3 
				193.7,270.4 191.1,271 189.3,271.4 189.5,271.8 187.6,272.5 188.3,272.6 186.7,273.4 			"/>
			<polygon class="st6" points="258.3,290.9 258.7,291.7 258.7,292.9 258.5,293.5 258.6,294.4 258.5,295.2 258.6,295.9 259.2,295.3 
				259.8,295.8 259.8,295.2 259,294.3 259.5,293.1 260.7,293.4 259.9,291.9 259.6,291 259.6,290.2 259.3,289.4 259.1,288.9 
				258.8,289 259.1,289.4 258.3,289.8 			"/>
			<polygon class="st6" points="295.6,278.3 293.4,278.2 293.6,278.8 293.1,278.6 293.1,278 291,277.2 289.1,276.6 287.9,276.2 
				285.6,275.8 284,275.9 281.4,275.6 281,276 281.7,276.5 280.7,276.8 279.3,276 277.8,276.1 276.3,276 274.9,276 273.8,276.2 
				272.8,275.9 272.9,275.3 272.2,275 270.6,274.8 267.4,275 265.3,274.4 264.6,273.9 257.4,273.3 256.3,273.7 256.9,274.5 
				255.6,274.3 255,274.6 253.4,274.3 252,274.5 250.8,274.2 250,275 248.7,274.7 247.7,274 248.2,273.7 247.8,273.1 246.5,272.7 
				245.2,272.7 243.5,272.6 243.5,273.2 240.1,273.1 239.9,272.7 237.4,272.5 236.1,272.7 235.7,272.9 235.3,272.4 234.6,272.5 
				233.4,272.3 232.4,272.2 233,271.9 235.1,271.5 236,271.2 236.2,270.8 235.6,270.5 233.8,270.1 231.4,270 230.7,270.3 
				230.5,269.8 228.6,269.7 229.8,269.5 228.4,269.2 226.5,269.6 225.7,269.9 225.5,270.3 224,270.3 222.2,270.7 221.6,270.5 
				219.4,270.6 219.2,270.8 217.1,271 215.5,271.4 214.6,271.4 213.6,272 214.3,272.4 212.6,272.5 210.6,272.5 209.2,272.6 
				209.3,273.5 210,274.2 208.6,273.8 206.9,273.8 205.5,274.1 205.9,274.7 205.1,274.6 205.4,273.8 204.9,273.3 204.6,273.3 
				204.7,273.9 203.3,274.5 204.3,275.2 203.7,276 203.9,276.5 204.8,276.5 204.4,277.1 204.9,277.6 204.2,278 204,278.4 
				203.1,278.6 202.8,278.9 201.8,278.8 203.4,277.6 203.8,277 202.9,276.5 203.1,275.4 202.8,274.8 202.3,274.5 203.1,273.8 
				202.9,273.4 200.8,273.1 200.2,273.3 199.6,274.1 198.2,274.8 198.2,275.1 198.6,275.8 198.3,276.2 199.3,276.2 199.3,276.4 
				200.1,276.9 199.6,277.3 196.7,276.4 195.6,276.1 193.2,275.8 192.8,276.1 193.6,276.6 192.7,277.1 191.8,276.6 190.6,277 
				189.1,277 188.6,277.3 187.6,277.2 188.4,276.7 187.8,276.7 184.9,277.4 183.3,277.8 183.1,278.3 181.8,278.5 181.2,278.2 
				181.2,277.8 182.2,277.6 181.8,277.2 179.5,276.9 180.1,277.4 179.7,277.9 180.4,278.4 179.9,279 179.2,278.7 178.4,278.7 
				176.6,279.5 177.1,280.1 176.4,280.3 174.5,279.8 174,280.1 174.4,280.5 174.3,280.9 173.7,280.7 172.7,280.4 172.6,279.5 
				172.6,279.1 171.3,278.5 171.9,278.4 175.4,279.1 176.8,278.8 177.6,278.4 177.6,277.8 177,277.4 173.9,276.5 171.7,276.3 
				170.4,275.8 169.6,276.1 168.7,275.5 169.8,275.3 167.2,274.7 165.8,274.9 164.3,274.8 163.1,275.5 161.8,275.5 160,275.9 
				157.8,276.9 156.5,277.5 154.6,279.2 153.1,280.3 151.5,281.2 149.4,281.9 148.6,282.5 148.9,284.4 149.2,285.3 150.3,285.7 
				151.4,285.5 153,284.6 153.5,285.1 154.1,286.3 154.8,287.2 155,288 156,288 156.4,287.3 157.4,287.4 157.8,286.6 158.1,285.2 
				159,285 159.7,284 158.9,283.6 158.4,283 159,281.8 160.5,281.1 161.8,280.4 161.7,279.9 162.4,279.3 163.8,279.1 164.9,279.5 
				165,279.8 164.5,280 162.6,280.9 161.9,281.4 161.5,281.9 161.9,282.7 161.8,283.5 162.5,283.8 163,284.3 164.3,284.1 
				165.7,283.8 167.2,283.7 168,284.1 167.1,284.6 166.3,284.6 165.4,284.5 164.4,284.6 163.4,284.8 163.4,285.3 163.9,285.6 
				164.3,285.5 164.1,286 164,286.6 163.4,286.6 162.7,286 162,286.3 161.6,286.8 161.5,287.5 161.7,288.2 160.6,288.4 160.4,288.8 
				159.6,288.8 159.6,288.6 158.8,288.5 157.8,288.7 156.5,289.1 156,289.4 155.6,289.1 154.7,288.8 154.2,289 153.4,289.2 
				153.4,288.9 152.6,288.7 152.6,288.3 152.4,287.9 153,287.3 153.2,287.4 153.4,287.1 153,287 152.9,286.7 153.1,286.5 153.1,286 
				152.5,286.3 152.2,286.5 151.5,286.5 151.3,286.8 151.1,287 151.2,287.9 151.5,288.4 151.5,288.8 151.7,289.1 151.2,289.6 
				151,289.4 150.3,289.4 150.2,289.6 149.5,289.6 149.2,289.7 149.1,289.8 148.9,289.9 149,290 148.9,290.1 149.1,290.1 
				149.1,290.2 149.1,290.3 149,290.4 148.8,290.6 148.6,290.5 148.8,290.5 148.7,290.4 148.7,290.3 148.8,290.3 148.9,290.3 
				148.9,290.2 148.8,290.2 148.8,290.1 148.7,290.1 148.6,290 148.6,289.9 148.4,289.9 148.4,290.3 148.1,290.7 147.8,290.9 
				147.5,291.2 147.3,291.4 146.7,291.6 146,291.7 145.7,292.4 143.9,293.1 143.1,292.7 143.4,293.7 142,293.5 141,293.6 141,294.3 
				142.3,294.6 142.9,295 143.7,295.9 143.5,297.6 143.1,298.1 141.8,298 141.2,298.1 140.3,297.9 139.2,297.9 138.2,297.8 
				137.1,298.4 137.4,298.8 137.4,299.4 137.4,299.6 137.6,299.9 137.6,300.3 137.4,300.8 137.4,301.1 137.1,301.5 137,302 
				137.2,302.3 137.6,302.4 137.6,302.9 137.5,303.6 137.9,303.5 138.3,303.6 138.7,303.4 139.4,303.5 139.6,304 139.9,304.3 
				140.3,304.3 140.6,304 141.1,303.7 141.9,303.8 142.9,303.7 143.5,303.1 144.1,302.9 144.3,302.4 144.7,302 144.4,301.5 
				144.7,300.8 145.2,300.4 145.3,300.1 146.3,299.9 147.1,299.4 147,298.9 147.1,298.4 148.3,298.1 149.9,298.3 150.6,297.8 
				150.9,297.8 151.4,297.4 151.8,297.3 152.4,297.5 152.8,297.6 153.1,298.5 153.6,299 154.4,299.5 155,299.9 155.6,299.9 
				155.9,300.3 156.4,300.4 156.7,300.8 157,300.9 157.3,301.3 157.6,301.8 157.4,302 157.2,302.4 157.2,302.7 157.6,302.6 
				158,301.9 158.3,301.9 158.4,301.4 157.8,301.1 158.2,300.6 158.9,300.7 159.3,301.1 159.5,300.8 159.4,300.6 158.7,300.2 
				158.1,300 157.4,299.6 157.6,299.5 157.4,299.3 156.8,299.3 155.9,298.6 155.5,297.9 154.8,297.5 154.5,297.1 154.6,296.8 
				154.5,296.4 155.2,296.1 155.8,296.2 155.6,296.3 155.6,296.3 155.6,296.6 155.8,296.9 156.1,296.5 156.6,296.7 156.6,297 
				157,297.3 156.8,297.4 157.5,298 158.2,298.2 158.7,298.5 159.4,298.9 159.8,299 160,299.3 160.2,299.4 160.3,299.5 160.2,299.8 
				160.1,300.3 160.2,300.7 160.7,301 160.7,301.2 160.8,301.3 160.8,301.3 160.9,301.5 161.3,301.8 161.2,301.9 161.3,302 
				161.6,302.4 161.9,302.4 162.3,302.3 162.5,302.3 162.7,302.3 162.6,302.5 162.5,302.5 162.3,302.3 162.1,302.4 162,302.5 
				161.9,302.5 161.8,302.6 161.6,302.7 161.7,302.9 161.9,302.9 162,303 162.1,303.2 161.9,303.3 162,303.6 162.2,303.7 
				162.3,303.7 162.3,303.5 162.4,303.5 162.6,303.7 162.6,303.9 162.7,304 162.8,303.6 162.9,303.6 163.1,304 163.2,303.9 
				162.9,303 163.2,303.2 163.4,303.1 163.2,302.7 163.6,302.6 163.9,302.9 163.9,302.4 163.5,302.2 163.1,301.8 163.4,301.6 
				163,301.2 162.8,300.7 162.9,300.5 163.4,301 163.8,301 164.2,300.8 163.7,300.4 164.6,300.1 165.1,300.2 165.6,300.3 
				165.5,300.4 165.8,300.8 166.5,300.4 166.8,300.1 167.8,300 167.9,299.9 167.2,299.6 167.1,299.3 166.9,298.8 167.1,298.2 
				167.6,297.8 167.8,296.8 168,296.9 168.4,296.7 168.4,296.5 169,295.9 169.3,295.4 170.1,295.3 170.1,295.6 171.4,295.8 
				171.5,295.9 171.6,295.8 171.7,296 170.8,296.3 170.7,296.5 171.6,296.7 171.4,297.1 171.8,297.3 172.9,296.8 173.8,296.6 
				174,296.3 173.1,296.4 172.8,296.2 172.3,295.9 172.7,295.7 173.4,295.4 174.1,295.3 174.7,295 175.3,295 176,294.8 176.1,295 
				174.9,295.4 175.3,295.7 174.6,296.4 174.1,296.5 174.8,297 175.7,297.3 176.7,298 177,298.3 177.4,298.4 177.9,298.7 
				178.1,299.3 178,299.6 177,300.1 176.4,300 175.4,300.1 174.3,299.8 172.9,299.2 171.5,299.2 170.6,299.5 169.6,300 168.1,299.9 
				167.8,300.5 166.5,300.6 165.6,301.4 166.1,301.8 165.8,302.4 166.4,302.9 166.8,303.8 167.7,303.7 168.5,304.2 169,304.1 
				169.2,303.7 170.1,303.8 170.7,304.2 171.9,304.1 172.5,303.6 173.2,303.8 173.7,303.8 173.4,304.1 173.6,304.5 173.5,304.8 
				173.5,305.4 173.5,305.5 173.1,306.1 172.8,306.7 172.8,306.8 172.7,307 172.5,307.6 172.3,308 172.4,308 172.1,308.3 
				171.7,308.5 171.1,308.5 170.5,308.3 170.3,308.5 170.1,308.1 169.5,308 168.8,308.1 168.5,308.3 167.8,308.6 167.5,308.5 
				166.7,308.2 165.9,308 164.8,308 164.6,307.7 163.8,307.6 163.6,307.5 163.3,307.5 163,307.1 161.9,307 161.4,307.1 160.8,307.5 
				160.6,307.9 160.7,308.5 160.4,308.9 160,309.1 159.1,308.7 158,308.3 157.3,308.2 156.9,307.4 155.8,307.1 155.1,306.9 
				154.8,307 153.9,306.7 153.6,306.6 153.4,306.2 152.9,306.2 152.8,305.7 153.3,305.3 153.4,304.5 153.1,304.3 153.1,304 
				153.6,303.5 153.5,303.4 152.8,303.7 152.8,303.3 152.3,303.2 151.4,303.5 150.9,303.6 150.5,303.4 149.7,303.4 148.9,303.7 
				148.5,303.6 147.2,303.6 145.8,303.8 145.1,304 144.5,304.4 143.7,304.5 142.9,305 142.6,305 141.7,304.8 141,304.9 140.5,304.5 
				139.9,304.5 139.6,305 139.1,305.9 138.5,306.2 137.7,306.6 137.2,307.2 137.1,307.6 136.8,308.4 137,309.4 136.3,310.1 
				135.9,310.3 135.3,310.9 134.5,311 134.1,311.3 134.1,311.3 134.1,311.3 133.6,312.2 133.1,312.5 132.8,313 132.8,313.4 
				132.5,313.9 132.3,314.1 131.8,314.6 131.6,315.2 131.6,315.5 131.3,315.9 131,316.1 131,316.5 131,316.9 131.4,317.3 
				131.6,317.6 131.5,318.1 131.6,318.5 131.7,319.3 131.6,320.1 131.4,320.5 131.4,321 131.3,321.4 130.9,322 130.5,322.1 
				130.9,322.4 131.2,323.1 131.1,323.5 131.3,324.1 131.3,324.3 131.6,324.5 131.6,324.6 131.7,324.8 132.1,324.9 132.5,325.2 
				132.7,325.4 132.9,325.5 132.9,325.9 133.1,326.1 133.4,326.2 133.7,326.5 134,327 134.1,327.6 134.3,328 134.7,328.4 
				135.3,328.7 135.5,328.8 136,329.3 136.7,329.8 137.4,330.4 138.3,330.8 138.5,330.8 138.6,330.8 139.4,330.5 140,330.3 
				140.9,330.1 141.4,330.1 142,330.3 142.4,330.3 143.1,330.5 143.8,330.3 144.2,330 145.5,329.5 146.1,329.3 146.8,329.2 
				147.5,329.2 148.1,329.2 148.7,329.8 148.9,330.4 149.4,330.9 150,330.9 150.3,330.7 150.6,330.8 151.5,330.5 151.5,330.7 
				151.7,330.8 151.8,331.2 152.2,331.4 152.5,331.9 152.4,332.6 152.1,333.5 152.3,333.6 152.1,334.3 151.9,334.9 151.7,335.1 
				151.7,335.4 152.2,336.3 152.7,337 153.6,337.8 154.2,338.7 154.4,339.3 154.5,339.6 154.4,339.8 154.9,340.3 155,340.9 
				155.3,341.6 155,342 155,342.2 155.2,342.7 155.4,343.2 155.6,343.5 155.7,344 155.6,344.6 155.3,344.9 154.9,345.5 154.7,345.8 
				154.4,346.6 154.4,347 154.1,347.7 154,348.5 154.1,349 154.1,349.6 154.8,350.4 154.9,351 155.4,352 155.8,352.7 156.1,353 
				156.2,353.5 156.2,354.5 156.5,355.8 156.7,356.4 156.9,357.2 157.2,357.8 157.8,358.4 158.3,359.5 158.3,359.5 158.7,360.2 
				159.3,361 159.3,361.7 159,361.8 159.3,362.4 159.3,362.9 159.4,363.1 159.4,363 159.8,363.4 160.1,363.4 160.4,363.7 
				160.8,363.7 161.2,363.4 161.9,363.2 162.8,362.9 163.1,362.9 163.6,362.8 164.4,363 164.8,362.8 165.3,363 165.4,362.7 
				165.8,362.7 166.7,362.4 167.3,362 167.9,361.5 168.8,360.6 169.2,360 169.4,359.6 169.8,359.1 169.9,359 170.5,358.6 
				170.7,358.2 170.8,357.5 171,356.9 171.1,356.5 170.9,356.4 170.8,356 171.1,355.7 172.1,355.3 172.8,355 173.1,354.7 
				173.2,354.4 173,354.2 173.2,353.8 173.2,353 173,353 173,352.8 172.9,352.3 172.5,351.7 172.6,351.1 172.9,350.9 173.4,350.3 
				173.8,350.1 174.7,349.2 175.6,348.8 176.3,348.5 176.8,348 177.1,347.4 177.4,346.8 177.2,346.4 177.2,345.1 177.1,344.3 
				177.1,343.5 177,343.1 176.7,342.9 176.4,342.1 176.1,341.6 176.1,341.2 176.1,340.9 176.3,340.4 176.3,340.2 175.8,339.9 
				175.7,339.4 176.1,338.4 176.4,338.1 176.6,337.6 176.8,337.2 176.9,336.6 177.3,336.6 177.4,336.2 178,335.9 178.2,335.7 
				178.4,335.3 179.3,334.2 180,333.6 181.2,332.8 182,332.1 182.9,330.9 183.6,330 184.3,328.8 184.8,327.7 185.2,326.8 
				185.4,325.9 185.6,325.6 185.6,325.1 185.7,324.6 185.6,324.4 185.4,324.4 185,324.7 184.6,324.8 184.2,324.9 183.9,324.9 
				183.5,325 183.2,325.1 182.8,325.2 182.1,325.4 181.2,325.5 180.4,325.7 180,325.7 179.7,325.4 179.5,325 179.3,324.9 
				178.9,324.6 179.4,324.5 179.4,324.1 179.2,323.8 178.8,323.6 178.6,323.3 178.1,322.8 177.7,322.3 176.6,321.5 176.1,321.1 
				175.9,320.4 175.5,319.4 175,319.1 174.7,318.9 174.4,317.9 174.3,317 174.5,316.9 174.2,316 174.1,315.9 173.1,315.1 
				173.1,314.6 173.3,314.4 172.6,313.5 172.3,313 172,312.6 171.4,311.3 170.9,310.4 170.6,309.5 170.7,309.5 171.2,310.7 
				171.6,311 171.9,311.3 172.1,311.2 172.3,310.7 172.4,310.1 172.7,309.8 172.7,309.9 172.6,310.2 172.6,310.5 172.4,311 
				172.8,311 173.2,311.5 173.7,312.2 174,312.8 174.3,313 174.5,313.5 174.5,313.6 174.7,314.1 175.1,314.3 175.5,314.6 176,315.6 
				176,316.1 176.1,316.6 176.6,317.4 176.9,317.6 177.5,318.1 177.7,318.8 178.1,319.5 178.6,319.8 178.6,320.2 178.9,320.4 
				179,320.8 179,321.1 178.9,321.3 179,321.7 178.8,321.7 179.1,322.1 179.2,322.7 179.4,323 179.3,323.4 179.5,323.9 180.1,323.9 
				180.4,323.8 180.7,323.8 180.9,323.6 181.1,323.6 181.3,323.4 181.5,323.3 182.1,323.3 182.6,323.1 183.1,322.8 183.4,322.8 
				183.7,322.8 184.4,322.2 185.7,321.8 186.5,321.4 186.5,321.1 186.7,320.8 187.3,320.5 187,319.9 187.3,320.5 187.6,320.5 
				188.2,320.2 188.6,320.3 189,320 189,319.7 189.3,319.5 189.8,319.5 190,319.3 190.1,318.9 190.6,318.6 190.9,318.6 191,318.5 
				190.9,317.9 191,317.5 191.2,317.3 191.6,317.4 191.9,316.8 192.2,316.5 192.3,316.3 192.6,315.8 192.6,315.6 192.3,315.5 
				192.1,315.2 191.8,314.7 191.3,314.6 190.7,314.5 190.3,314.2 189.9,313.6 189.8,312.9 189.9,312.8 190,312.4 189.9,312.4 
				189.6,312.6 189.1,313.2 188.5,313.7 188,314.3 187.5,314.2 186.8,314.2 186.2,314.4 186.2,314.1 186,314.2 185.9,313.8 
				186.1,313.4 186,312.9 185.8,312.6 185.6,312.7 185.4,313.1 185.4,313.7 185.3,313.5 185.2,313.3 185,313 184.9,312.7 
				184.9,312.5 184.9,312.1 184.3,311.8 184.2,311.5 183.8,311.3 183.5,310.5 183.2,309.9 183.3,309.7 183.1,309.4 183.6,309.4 
				183.9,309.1 184.4,309.4 184.9,309.2 185.4,310.3 186,311.1 186.8,311.4 187.6,312 188.6,312.3 189.4,311.9 190,311.7 
				190.4,311.9 190.7,312.9 191.6,313 192.5,313.2 194,313.5 195.1,313.4 196.4,313.3 197.9,313.2 198.5,313.8 198.8,314.4 
				199.4,314.6 200.3,315.3 200.5,315.7 200.1,316 201.2,317 201.8,317.1 202.9,316.6 203.1,317.4 203.1,318.4 203.3,319.5 
				203.6,321.1 204.4,322.2 204.5,322.8 204.7,323.8 205.1,324.6 205.4,325 205.7,325.9 206.1,327 206.9,327.8 207.2,327.6 
				207.4,327 208.2,326.8 207.9,326.5 208.3,325.8 208.7,325.8 208.7,324.4 209.1,323.6 209,322.9 208.9,321.8 209.1,321.2 
				209.5,321.1 210.2,320.8 210.6,320.6 210.6,320.2 211.4,319.7 212,319.1 212.9,318.2 214.1,317.6 214.5,317.1 214.4,316.5 
				215.4,316.3 216,316.3 216.1,316 216.4,316.1 216.6,316.2 216.7,316 217.1,316.2 217.3,315.7 217.3,315.4 218,315.4 218.3,315.9 
				218.5,316.3 218.5,316.7 218.8,317.2 219.3,317.9 219.8,318 219.7,318.3 220.3,319.2 220.5,320 220.2,321 220.7,321.2 
				221.2,321.3 222.1,320.7 222.6,320.3 222.9,321 223.1,322 223.4,323 223.7,323.5 223.6,324.4 223.9,324.9 223.6,325.5 
				223.7,326.2 223.5,327 223.4,327.5 223.6,328 223.7,327.5 224.1,327.9 224.5,328.3 224.6,328.7 224.9,329.1 225.1,329.4 225,330 
				225.3,330.5 225.4,331.2 225.9,331.7 226,332.2 226.9,332.8 227.7,333.5 228.3,333.4 228.3,333.1 228,332.4 227.7,332.1 
				227.6,331.6 227.6,331.4 227.6,331 227.6,330.4 227.3,329.9 226.8,329.4 226.6,329.3 226.2,328.8 225.7,328.7 225.3,328.3 
				225.1,327.5 224.8,326.8 224.3,326.7 224.2,326.1 224.5,325.4 224.9,324.2 225,323.3 225.7,323.2 225.6,323.9 226.2,323.9 
				226.9,324.3 227.4,325.1 227.7,325.6 228.4,325.7 228.9,326.2 228.7,326.7 229,327.3 230,326.5 230.7,325.8 231.6,325.3 
				232.3,324.7 232.4,323.2 232,321.7 231.5,321 230.8,320.5 230,319.4 229.4,318.5 229.6,317.9 230.3,317.1 231.3,316.4 
				230.5,316.2 231.3,316.4 231.7,316.3 232.8,316.5 232.6,316.9 232.8,317.5 233.3,317.4 233.5,316.5 234.4,316.4 235.5,316 
				236,315.6 236.2,315.9 236.7,315.5 237.6,315.4 238.8,314.7 239.9,313.9 240.6,312.9 241.3,311.8 241.8,310.9 242.3,310.8 
				242.5,310.2 242.6,309.5 242.1,309.2 241.9,308.8 242.4,308.5 242.5,307.9 241.9,307.3 241.4,306.5 241.1,305.7 240.3,305.2 
				240.7,304.6 241.4,304.2 241.8,303.8 242.9,303.5 242.8,303.1 242.3,303 241.6,302.7 240.7,303.3 240.1,303.1 240,302.7 
				239.4,302.6 238.9,302 239.4,301.6 240.1,301.6 240.6,301 241.5,300.4 242.2,300.1 242.7,300.6 242,301.1 242.2,301.5 
				241.8,301.9 242.6,301.6 243.2,301.2 244.4,301 244.7,301.2 245.2,301.3 245.3,301.5 245.1,301.9 245.1,302.1 244.9,302.2 
				244.7,302.5 244.9,302.7 245.1,302.7 245.2,302.9 245.4,302.8 245.5,302.7 245.9,302.8 246.4,303.5 245.8,303.7 246.2,304.6 
				246,305.2 246.1,305.6 246.9,305.6 247.5,305.2 248.2,305.1 248.5,304.6 248.5,303.6 248.3,303.1 247.6,302.1 247.2,301.7 
				246.9,301.6 246.9,301.5 247,301.1 247.3,300.9 247.9,300.8 248.2,300.5 248.3,300.4 248.7,300.2 248.7,299.6 248.9,299.3 
				249.3,299 249.6,299.1 249.7,298.8 250.8,298.2 251.3,298.6 251.8,298.6 252.9,298.1 253.4,297.6 254.5,296.6 255.5,295.6 
				255.8,295 257,293.8 257.4,292.5 257.5,291.5 258.1,290.6 258,289.9 256.9,289 256,289 255.5,289.4 254.7,289.2 254.3,288.7 
				253.1,288.5 256.1,286.6 258.7,284.9 261.4,284.7 263.8,284.8 264.8,284.4 266.1,284.5 266,285.1 267.3,285.1 269,284.8 
				268.4,284.3 270.4,282.9 272.5,282.6 273.1,283.7 275.1,282.7 275.6,282 276.6,282 276,283.2 274.5,283.8 273.1,284.7 
				271.7,285.8 270.5,285.9 270.4,286.3 269.7,286.8 269.4,288 269.8,289.9 270.1,291.1 270.4,291.7 271.6,290.9 271.8,290 
				273,289.8 273.3,288.9 274.7,288.5 274.4,288.1 274.7,287.4 275.5,287.4 275.6,286.1 274.7,285.9 274.6,285.6 275.6,284.8 
				275.9,284.2 276.9,284.3 277.7,284 278.1,284.3 280.2,283.6 281.3,284.2 281.6,283.8 282.8,283.3 284,282.7 284.7,282.6 287,282 
				288.5,282.2 288.7,282 288.6,281.6 288.2,281.4 287.7,280.7 287,280.2 288,280.3 289.1,279.9 289.1,279.9 289.5,279.6 
				289.2,279.2 290.1,279 290,279.3 290.4,279.6 291.3,279.5 292.1,279.6 292.3,280 293.4,280.2 294,280.5 294.7,280.5 295,280.4 
				295.1,279.5 296.4,279.5 297.2,279.1 			"/>
			<polygon class="st6" points="228.9,268.7 229.2,268.4 227.2,267.9 226.6,267.8 225.9,267.9 224.4,269 			"/>
			<polygon class="st6" points="182,267.1 182.8,267.3 183.8,267.1 183.9,267 184.6,266.9 185.7,266.8 186,266.7 184.8,266.5 
				184,266.7 183.6,266.9 183.4,266.6 182.2,266.6 180.6,266.8 182.4,266.8 			"/>
			<polygon class="st6" points="219.5,267.8 220.9,268.1 223.1,268.3 224.8,268.2 225,267.5 223.2,266.7 221.6,266.2 219.9,266.4 
				217.8,267 218.9,267.2 			"/>
			<polygon class="st6" points="289.1,275 290.1,275 290.9,274.8 291,274.6 289.9,274.4 289.2,274.4 289.1,274.4 288,274.8 
				288.2,275 			"/>
			<polygon class="st6" points="257.6,272.5 256.9,272.9 257,272.9 258.6,273 259.9,273 259.8,272.8 258.6,272.5 			"/>
			<polygon class="st6" points="257.5,271.6 260.4,271.6 261,271 258.1,270.6 256,270.5 255,270.7 254.6,271.3 256.1,271.8 			"/>
			<polygon class="st6" points="273.3,342.4 272.8,342.2 272.7,342.6 272.9,342.7 273.4,342.8 273.7,342.8 273.6,342.5 			"/>
			<polygon class="st6" points="272.9,341.5 272.7,341.2 272.1,340.8 271.7,340.6 271.6,340.7 271.9,341 272.3,341.3 273,341.6 			
				"/>
			<polygon class="st6" points="270.3,340 270.2,340.1 270.5,340.5 270.9,340.7 271,340.6 270.7,340.4 			"/>
			<polygon class="st6" points="274.6,343.2 274.1,343 274.4,343.5 274.9,343.5 274.7,343.3 			"/>
			<polygon class="st6" points="274.3,342.7 274.4,342.5 274,342.1 273.8,341.5 273.5,341.5 273.6,342 			"/>
			<polygon class="st6" points="160.6,267.4 160.8,267.6 163.1,267.8 165.4,267.7 166.6,267.2 165.1,267 163,266.7 162.2,267 
				161.1,266.8 158.6,267 159.5,267.4 			"/>
			<polygon class="st6" points="155.2,269 156.4,269.2 155.7,269.5 157.4,270 158.4,270 158.8,269.3 159.5,269.1 159.9,268.5 
				161.9,268.2 159.3,267.5 158.3,267.3 157.1,267.3 156.8,267.6 155.6,267.6 155.2,267.3 153,267.6 153.6,268.2 			"/>
			<polygon class="st6" points="162.7,269.4 164.5,269.1 163.3,268.9 163,268.6 161.4,268.8 161.8,269 161.3,269.2 			"/>
			<polygon class="st6" points="200.5,375.6 200,375.3 199.9,375.5 199.8,375.8 199.8,376.3 201,376.2 201.3,375.8 201.2,375.7 			
				"/>
			<polygon class="st6" points="245.7,341.5 245,341.7 244.9,341.9 244.1,342.3 243.8,342.8 243.7,343.1 243.8,343.2 244.5,343 
				245,342.4 245.7,342.1 246.5,341.7 246.8,341.5 246.5,341.4 246.3,341.5 			"/>
			<polygon class="st6" points="95.1,326.1 95.8,326 95.8,325.4 95.6,325.4 95.2,325.5 95.2,325.8 94.9,326 			"/>
			<polygon class="st6" points="241.9,315.4 242.4,314 242.5,313.5 242.1,313.3 241.5,313.9 241,314.7 241.1,315.4 241.5,316.1 			
				"/>
			<polygon class="st6" points="21.7,285.8 21.3,286 20.5,286.3 20.7,286.6 21.1,286.9 21.9,286.5 22.6,286.1 22.2,285.9 			"/>
			<polygon class="st6" points="8.6,281.6 9.2,281.4 9.3,281.3 8.6,281.3 			"/>
			<polygon class="st6" points="38.9,289.1 38.2,289.1 37.8,289 37.7,289.3 37.9,289.7 38.3,289.9 38.6,290.3 39.1,290.7 
				39.4,290.7 38.7,290 			"/>
			<polygon class="st6" points="20.1,317.7 20,317.7 19.6,317.5 19.6,317.5 19.5,317.6 19.6,317.7 19.5,317.9 19.4,318 19.6,318.3 
				19.5,318.5 19.7,318.6 19.9,318.5 20.1,318.4 20.4,318.2 20.4,318.1 20.2,317.8 			"/>
			<polygon class="st6" points="16.6,315.9 16.5,315.9 16.4,316 16.7,316.1 16.8,316.1 16.8,315.9 			"/>
			<polygon class="st6" points="19.3,317 19,316.9 18.9,317 18.9,317 19,317.1 19.1,317.2 19.4,317.2 19.5,317.1 			"/>
			<polygon class="st6" points="17.9,316.3 17.6,316.4 17.7,316.4 17.8,316.6 18,316.6 18.1,316.7 18.2,316.6 17.9,316.3 			"/>
			<polygon class="st6" points="11.1,283.8 10.3,283.9 10.8,284.2 11.3,284.3 11.8,284.2 11.7,283.9 			"/>
			<polygon class="st6" points="18.4,316.8 18.9,316.8 18.9,316.7 18.5,316.7 			"/>
			<polygon class="st6" points="279,348.4 279.3,348.3 278.8,347.8 278.8,348 			"/>
			<polygon class="st6" points="278.3,346.7 278.4,347.4 278.5,347.6 278.6,347.6 278.9,347.7 278.7,347 			"/>
			<polygon class="st6" points="90.3,379.7 89.9,379.1 89.6,378.7 89,378.6 88.3,378.9 88,379.5 87.6,379.9 86.5,379.6 85.4,379 
				84.7,378.9 85.8,379.8 86.7,380.3 87.7,380.7 88.5,380.8 89.1,381.1 89.6,381.2 90,381.2 90.7,380.9 90.9,380.6 91.3,380.9 
				92.1,380.8 92.4,380.4 91.3,380.2 			"/>
		</g>
		<rect x="203.7" y="309.4" class="st7" width="20.6" height="12.8"/>
		<rect x="131.1" y="368.8" class="st3" width="166" height="32.9"/>
		<g>
			<g>
				<line class="st7" x1="214" y1="360.2" x2="214" y2="318.5"/>
				<g>
					<circle class="st8" cx="214" cy="318.6" r="1.9"/>
				</g>
			</g>
		</g>
	</g>
</g>
<g id="_x31_999map" class="st9">
	<g class="st10">
		<image style="overflow:visible;" width="509" height="282" xlink:href="CE643C2E.png"  transform="matrix(1 0 0 1 468 -27)">
		</image>
	</g>
</g>
<g id="_x32_001map">
	<g class="st11">
		<image style="overflow:visible;" width="429" height="250" xlink:href="CE643C32.png"  transform="matrix(1 0 0 1 481 16)">
		</image>
	</g>
</g>
<g id="_x32_015map" class="st9">
	<g class="st12">
		
			<image style="overflow:visible;enable-background:new    ;" width="537" height="324" xlink:href="CE643C35.png"  transform="matrix(1 0 0 1 442.9359 -55.1194)">
		</image>
	</g>
</g>
<g id="paises">
	<g>
		<rect x="545.2" y="273" class="st3" width="237.8" height="61.6"/>
		<text transform="matrix(1 0 0 1 609.129 284.2434)"><tspan x="0" y="0" class="st8 st13 st14">Golf</tspan><tspan x="26.1" y="0" class="st8 st13 st14">o </tspan><tspan x="38.4" y="0" class="st8 st13 st14">d</tspan><tspan x="46.5" y="0" class="st8 st13 st14">e </tspan><tspan x="58.2" y="0" class="st8 st13 st14">Bengal</tspan><tspan x="101.7" y="0" class="st8 st13 st14">a</tspan></text>
	</g>
	<g>
		<rect x="660.3" y="158.5" class="st3" width="139.7" height="22.6"/>
		<text transform="matrix(1 0 0 1 702.1792 178.7898)"><tspan x="0" y="0" class="st8 st13 st15">Indi</tspan><tspan x="41.3" y="0" class="st8 st13 st15">a</tspan></text>
	</g>
	<g>
		<rect x="451.7" y="81.9" class="st3" width="93.5" height="24.9"/>
		<text transform="matrix(1 0 0 1 464.8132 102.1967)"><tspan x="0" y="0" class="st8 st13 st15">Nepa</tspan><tspan x="60.7" y="0" class="st8 st13 st15">l</tspan></text>
	</g>
	<g>
		<rect x="461" y="118.5" class="st3" width="239.5" height="23.4"/>
		<text transform="matrix(1 0 0 1 526.594 138.7865)"><tspan x="0" y="0" class="st8 st13 st15">Himalay</tspan><tspan x="93.5" y="0" class="st8 st13 st15">a</tspan></text>
	</g>
	<rect x="604.1" y="122.4" class="st3" width="168.6" height="48.2"/>
	<text transform="matrix(1 0 0 1 654.7234 142.6127)"><tspan x="0" y="0" class="st8 st13 st15">But</tspan><tspan x="52.5" y="0" class="st8 st13 st15">n</tspan></text>
	<g>
		<rect x="609.4" y="221.5" class="st3" width="141.8" height="20.4"/>
		<text transform="matrix(1 0 0 1 630.2202 236.4783)"><tspan x="0" y="0" class="st8 st13 st16">Banglades</tspan><tspan x="89" y="0" class="st8 st13 st16">h</tspan></text>
	</g>
	<g>
		<rect x="721.7" y="261.7" class="st3" width="218.8" height="76.5"/>
		<text transform="matrix(1 0 0 1 776.4375 281.9323)"><tspan x="0" y="0" class="st8 st13 st15">Myanma</tspan><tspan x="100.3" y="0" class="st8 st13 st15">r</tspan><tspan x="10.4" y="24" class="st8 st13 st16">(Birmania</tspan><tspan x="92" y="24" class="st8 st13 st16">)</tspan></text>
	</g>
	<g>
		<rect x="155.3" y="361.1" class="st3" width="117.1" height="23.2"/>
		<text transform="matrix(1 0 0 1 188.4505 381.3992)"><tspan x="0" y="0" class="st8 st13 st15">Asi</tspan><tspan x="36.1" y="0" class="st8 st13 st15">a</tspan></text>
	</g>
	<g>
		<rect x="438.3" y="193.7" class="st3" width="139.7" height="22.6"/>
		<text transform="matrix(1 0 0 1 480.1685 213.9293)"><tspan x="0" y="0" class="st8 st13 st15">Indi</tspan><tspan x="41.3" y="0" class="st8 st13 st15">a</tspan></text>
	</g>
	<g>
		<rect x="926.1" y="83.1" class="st3" width="139.7" height="22.6"/>
		<text transform="matrix(1 0 0 1 963.0146 103.343)"><tspan x="0" y="0" class="st8 st13 st15">Chin</tspan><tspan x="51.2" y="0" class="st8 st13 st15">a</tspan></text>
	</g>
	<g>
		<rect x="524.1" y="24.1" class="st3" width="237.8" height="61.6"/>
		<text transform="matrix(1 0 0 1 621.3778 39.0927)"><tspan x="0" y="0" class="st8 st13 st16">Tbe</tspan><tspan x="36.7" y="0" class="st8 st13 st16">t</tspan></text>
	</g>
	<g>
		<rect x="100.5" y="94.4" class="st3" width="139.7" height="22.6"/>
		<text transform="matrix(1 0 0 1 133.499 109.4141)"><tspan x="0" y="0" class="st8 st13 st16">Pakist</tspan><tspan x="62.7" y="0" class="st8 st13 st16">n</tspan></text>
	</g>
	<g>
		<rect x="821.7" y="360" class="st3" width="237.8" height="61.6"/>
		<text transform="matrix(1 0 0 1 901.7987 374.9719)"><tspan x="0" y="0" class="st8 st13 st16">Tailandi</tspan><tspan x="66.6" y="0" class="st8 st13 st16">a</tspan></text>
	</g>
	<g>
		<rect x="1114.8" y="313.8" class="st3" width="237.8" height="61.6"/>
		<text transform="matrix(1 0 0 1 1147.8297 325.0336)"><tspan x="0" y="0" class="st8 st13 st14">Ma</tspan><tspan x="20.5" y="0" class="st8 st13 st14">r </tspan><tspan x="29.3" y="0" class="st8 st13 st14">d</tspan><tspan x="37.4" y="0" class="st8 st13 st14">e </tspan><tspan x="49" y="0" class="st8 st13 st14">l</tspan><tspan x="52.3" y="0" class="st8 st13 st14">a </tspan><tspan x="64.2" y="0" class="st8 st13 st14">Chin</tspan><tspan x="92.6" y="0" class="st8 st13 st14">a </tspan><tspan x="104.5" y="0" class="st8 st13 st14">meridiona</tspan><tspan x="168.1" y="0" class="st8 st13 st14">l</tspan></text>
	</g>
	<g>
		<rect x="16" y="31" class="st3" width="139.7" height="22.6"/>
		<text transform="matrix(1 0 0 1 39.698 45.991)"><tspan x="0" y="0" class="st8 st13 st16">Afganist</tspan><tspan x="81.2" y="0" class="st8 st13 st16">n</tspan></text>
	</g>
</g>
<g id="Norte">
	<g id="norte">
		<polygon class="st8" points="1330.9,6.3 1323.4,14.3 1338.5,14.3 		"/>
	</g>
	<rect x="1309.5" y="15.2" class="st3" width="43.1" height="27.1"/>
	<text transform="matrix(1 0 0 1 1322.1276 33.972)" class="st13 st17">N</text>
</g>
</svg>
