<?xml version="1.0" encoding="UTF-8"?>
<svg enable-background="new 0 0 300 200" version="1.1" viewBox="0 0 300 200" xml:space="preserve" xmlns="http://www.w3.org/2000/svg">
<style type="text/css">
	.st0{fill:none;}
	.st1{fill:#777776;}
	.st2{font-family:'Roboto-Regular';}
	.st3{font-size:16px;}
	.st4{fill:#DFDFDE;}
	.st5{fill:none;stroke:#1D1E1C;stroke-width:0.2174;stroke-miterlimit:10;}
</style>
	<rect class="st0" x="25.512" y="180.75" width="106.83" height="17.633"/>
	<text class="st1 st2 st3" transform="translate(39.468 192.75)">37 a 47 cm</text>
	<rect class="st0" x="138.57" y="180.75" width="131.04" height="17.633"/>
	<text class="st1 st2 st3" transform="translate(164.62 192.75)">56 a 63 cm</text>
<path class="st4" d="m24.5 134.32c60.271 0.6431 187.31-2.9199 245 1.2225-79.827 13.181-167.62 16.426-245-1.2225z"/>
<path class="st1" d="m82.914 81.328c48.061-16.592 17.262 28.532 29.984 47.188 3.9153 8.788 38.406 11.177 26.205 1.5281-13.49-15.139 16.168-32.765 30.414-26.403 10.434 4.6608-15.269 34.324 23.535 30.419-6.8194-9.6376 0.8454-14.163 5.9332-22.176 12.334 1.31 15.177 40.502 49.214 24.988-0.2841-7.5331-15.808-4.1796-23.482-22.736-5.5537-12.785 26.695-13.14 32.811-7.9636 4.5022 3.3848 15.266-1.3899 10.986-9.1662 1.8624-14.527-1.2637-14.862-6.6449-27.148 0.9866-5.9706-3.7632-5.4748-8.4194-4.6267-50.019-4.3125-96.459-34.273-147.91-19.826-29.438 5.2607-61.744 14.984-76.544 43.593-4.8923 6.9411-8.7635 26.126 5.0497 23.582 17.13-8.2385 30.806-24.413 48.868-31.253z"/>
<rect class="st0" x="95.585" y="8.1771" width="102.69" height="23.454"/>
<text class="st1 st2 st3" transform="translate(119.11 20.177)">5 a 6 kg</text>
<polyline class="st5" points="27.576 171.72 27.576 159.18 131.68 159.18 131.68 171.72"/>
<polyline class="st5" points="138.57 171.72 138.57 159.18 269.6 159.18 269.6 174.17"/>
</svg>
