<?xml version="1.0" encoding="utf-8"?>
<svg version="1.1" id="Capa_1" xmlns="http://www.w3.org/2000/svg" xmlns:xlink="http://www.w3.org/1999/xlink" x="0px" y="0px"
	 viewBox="0 0 1200 600" style="enable-background:new 0 0 1200 600;" xml:space="preserve">
<style type="text/css">
	.st0{fill:none;}
	.st1{fill:#1D1D1B;}
	.st2{font-family:'Roboto-Regular';}
	.st3{font-size:30px;}
	.st4{fill:none;stroke:#1D1D1B;stroke-miterlimit:10;stroke-dasharray:1,1;}
</style>
<image style="overflow:visible;enable-background:new    ;" width="2776" height="2083" xlink:href="1B24C8AE.jpeg"  transform="matrix(0.3361 0 0 0.3361 118.5 -35)">
</image>
<rect x="925.7" y="205.4" class="st0" width="222.7" height="35.6"/>
<text transform="matrix(1 0 0 1 938.66 224.18)" class="st1 st2 st3">Gl치ndulas olfativas </text>
<rect x="676.4" y="525.9" class="st0" width="243.7" height="39.3"/>
<text transform="matrix(1 0 0 1 684.4 544.64)" class="st1 st2 st3">U침as semiretr치ctiles</text>
<path class="st4" d="M923.6,224c-3.6-0.3-16.4-1.2-26.9,7.4c-10.9,8.9-15.4,24.7-11.4,40.5"/>
<polygon class="st1" points="880.1,272 887.5,278.7 889.7,269 "/>
<path class="st4" d="M266.5,152.7c3.7-0.7,16.9-2.6,29.1,5.2c11.6,7.4,18.5,20.9,18.7,35.6"/>
<polygon class="st1" points="309.3,191.9 313.9,200.7 319.3,192.4 "/>
<path class="st4" d="M245,530.3c1.8-0.3,19.2-3.9,26.7-20c5.5-11.8,3.6-26.2-4.6-37.3"/>
<polygon class="st1" points="271.7,471 262.3,467.7 264.2,477.5 "/>
<path class="st4" d="M666.5,525.9c-2.4-0.6-20.7-5.3-29.5-23.6c-6.9-14.3-3.6-28-0.6-35.8"/>
<polygon class="st1" points="640.5,470 639.6,460.1 631.4,465.8 "/>
<rect x="34.7" y="139.1" class="st0" width="213.2" height="25.8"/>
<text transform="matrix(1 0 0 1 12.684 154.85)" class="st1 st2 st3">Patr칩n de 12 anillos </text>
<rect x="42.1" y="520.4" class="st0" width="218.5" height="36.8"/>
<text transform="matrix(1 0 0 1 25.056 544.16)" class="st1 st2 st3">Pelaje abundante</text>
</svg>
